<svg id="Layer_1" data-name="Layer 1" xmlns="http://www.w3.org/2000/svg" viewBox="0 0 396.27 250.35">
  <title>books</title>
  <rect x="351.64" y="201.58" width="27.39" height="47.77" rx="12" style="fill: #603813;stroke: #000;stroke-miterlimit: 10;stroke-width: 2px"/>
  <rect x="29.66" y="201.58" width="27.39" height="47.77" rx="12" style="fill: #603813;stroke: #000;stroke-miterlimit: 10;stroke-width: 2px"/>
  <rect x="1" y="170.37" width="394.27" height="46.5" style="fill: #c69c6d;stroke: #000;stroke-miterlimit: 10;stroke-width: 2px"/>
  <path d="M37.84,1.5H68a12,12,0,0,1,12,12V168.38a.64.64,0,0,1-.64.64H26.48a.64.64,0,0,1-.64-.64V13.5A12,12,0,0,1,37.84,1.5Z" style="fill: #22b573;stroke: #000;stroke-miterlimit: 10;stroke-width: 3px"/>
  <path d="M91.28,20.61h31.55A11.29,11.29,0,0,1,134.12,31.9V168.42a.6.6,0,0,1-.6.6H80.58a.6.6,0,0,1-.6-.6V31.9A11.29,11.29,0,0,1,91.28,20.61Z" style="fill: #c1272d;stroke: #000;stroke-miterlimit: 10;stroke-width: 3px"/>
  <path d="M146.12,1.5h17.19a12,12,0,0,1,12,12V168.38a.64.64,0,0,1-.64.64H134.76a.64.64,0,0,1-.64-.64V13.5a12,12,0,0,1,12-12Z" style="fill: #fbb03b;stroke: #000;stroke-miterlimit: 10;stroke-width: 3px"/>
  <path d="M284.46,1.5H314.6a12,12,0,0,1,12,12V168.38a.64.64,0,0,1-.64.64H273.09a.64.64,0,0,1-.64-.64V13.5a12,12,0,0,1,12-12Z" style="fill: #ed1e79;stroke: #000;stroke-miterlimit: 10;stroke-width: 3px"/>
  <path d="M186.61,20.61h31.55A11.29,11.29,0,0,1,229.46,31.9V168.42a.6.6,0,0,1-.6.6H175.92a.6.6,0,0,1-.6-.6V31.9A11.29,11.29,0,0,1,186.61,20.61Z" style="fill: #f15a24;stroke: #000;stroke-miterlimit: 10;stroke-width: 3px"/>
  <path d="M240.75,20.61h20.41A11.29,11.29,0,0,1,272.46,31.9V168.42a.6.6,0,0,1-.6.6h-41.8a.6.6,0,0,1-.6-.6V31.9A11.29,11.29,0,0,1,240.75,20.61Z" style="fill: #65c8d0;stroke: #000;stroke-miterlimit: 10;stroke-width: 3px"/>
  <rect x="27.28" y="21" width="51.22" height="21.18" style="fill: #e6e6e6"/>
  <rect x="158.15" y="55.7" width="5.03" height="100.71" style="fill: #e6e6e6"/>
  <rect x="81.44" y="45.11" width="51.15" height="19.29" style="fill: #e6e6e6"/>
  <rect x="107.05" y="70.29" width="6.1" height="68.71" style="fill: #e6e6e6"/>
  <rect x="135.38" y="27" width="38.41" height="21.18" style="fill: #e6e6e6"/>
  <rect x="147.5" y="85.26" width="5.18" height="31.62" style="fill: #e6e6e6"/>
  <rect x="62.17" y="55.7" width="5.03" height="100.71" style="fill: #e6e6e6"/>
  <rect x="38.58" y="85.26" width="5.18" height="31.62" style="fill: #e6e6e6"/>
  <rect x="176.67" y="37.11" width="51.29" height="19.29" style="fill: #e6e6e6"/>
  <rect x="230.91" y="46.11" width="39.99" height="19.29" style="fill: #e6e6e6"/>
  <rect x="273.95" y="16" width="51.12" height="21.18" style="fill: #e6e6e6"/>
  <rect x="199.69" y="73.22" width="5.52" height="68.61" style="fill: #e6e6e6"/>
  <rect x="259.85" y="73.22" width="5.52" height="68.61" style="fill: #e6e6e6"/>
  <rect x="282.08" y="73.22" width="5.52" height="68.61" style="fill: #e6e6e6"/>
</svg>
