<svg id="Layer_1" data-name="Layer 1" xmlns="http://www.w3.org/2000/svg" viewBox="0 0 600 382.84">
  <title>code</title>
  <rect width="600" height="382.84" rx="67.72" style="fill: #262626"/>
  <rect x="53.73" y="37.91" width="120.9" height="24.63" rx="12.31" style="fill: #29abe2"/>
  <rect x="109.5" y="77.03" width="91.99" height="24.63" rx="10.74" style="fill: #29abe2"/>
  <rect x="109.5" y="116.14" width="91.99" height="24.63" rx="10.74" style="fill: #29abe2"/>
  <rect x="128.63" y="241.3" width="56.26" height="24.63" rx="8.4" style="fill: #29abe2"/>
  <rect x="192.61" y="37.91" width="75.39" height="24.63" rx="9.72" style="fill: #39b54a"/>
  <rect x="282.01" y="241.3" width="75.39" height="24.63" rx="9.72" style="fill: #39b54a"/>
  <rect x="418.9" y="241.3" width="37.69" height="24.63" rx="6.88" style="fill: #39b54a"/>
  <rect x="109.5" y="198.28" width="75.39" height="24.63" rx="9.72" style="fill: #39b54a"/>
  <rect x="157.83" y="316.4" width="75.39" height="24.63" rx="9.72" style="fill: #39b54a"/>
  <rect x="319.7" y="77.03" width="75.39" height="24.63" rx="9.72" style="fill: #39b54a"/>
  <rect x="404.19" y="77.03" width="44.27" height="24.63" rx="7.45" style="fill: #fbb03b"/>
  <rect x="365.62" y="241.3" width="44.27" height="24.63" rx="7.45" style="fill: #fbb03b"/>
  <rect x="222.03" y="284.33" width="75.39" height="24.63" rx="9.72" style="fill: #39b54a"/>
  <rect x="305.65" y="284.33" width="44.27" height="24.63" rx="7.45" style="fill: #fbb03b"/>
  <rect x="285.98" y="37.91" width="24.63" height="24.63" rx="5.56" style="fill: #ed1c24"/>
  <rect x="252.53" y="241.3" width="24.63" height="24.63" rx="5.56" style="fill: #ed1c24"/>
  <rect x="189.31" y="284.33" width="24.63" height="24.63" rx="5.56" style="fill: #ed1c24"/>
  <rect x="109.5" y="316.4" width="43.76" height="24.63" rx="7.41" style="fill: #ed1c24"/>
  <rect x="285.98" y="77.03" width="24.63" height="24.63" rx="5.56" style="fill: #ed1c24"/>
  <rect x="319.7" y="116.14" width="75.39" height="24.63" rx="9.72" style="fill: #39b54a"/>
  <rect x="404.19" y="116.14" width="44.27" height="24.63" rx="7.45" style="fill: #fbb03b"/>
  <rect x="285.98" y="116.14" width="24.63" height="24.63" rx="5.56" style="fill: #ed1c24"/>
  <rect x="206.16" y="198.28" width="24.63" height="24.63" rx="5.56" style="fill: #ed1c24"/>
  <rect x="341" y="37.91" width="24.63" height="24.63" rx="5.56" style="fill: #ed1c24"/>
  <rect x="218.47" y="77.03" width="58.41" height="24.63" rx="8.56" style="fill: #999"/>
  <rect x="189.27" y="241.3" width="58.41" height="24.63" rx="8.56" style="fill: #999"/>
  <rect x="128.63" y="284.33" width="56.26" height="24.63" rx="8.4" style="fill: #999"/>
  <rect x="218.47" y="116.14" width="58.41" height="24.63" rx="8.56" style="fill: #999"/>
  <rect x="319.7" y="37.91" width="12.2" height="24.63" rx="3.91" style="fill: #999"/>
  <rect x="189.43" y="198.28" width="12.2" height="24.63" rx="3.91" style="fill: #999"/>
  <rect x="235.48" y="198.28" width="12.2" height="24.63" rx="3.91" style="fill: #999"/>
  <rect x="109.5" y="155.25" width="321.74" height="24.63" rx="12.31" style="fill: #999"/>
</svg>
