<svg id="Layer_1" data-name="Layer 1" xmlns="http://www.w3.org/2000/svg" xmlns:xlink="http://www.w3.org/1999/xlink" viewBox="0 0 437.76 436.83">
  <defs>
    <linearGradient id="linear-gradient" x1="302.56" y1="360.06" x2="219.27" y2="516.06" gradientUnits="userSpaceOnUse">
      <stop offset="0" stop-color="#40b2ff"/>
      <stop offset="1" stop-color="#004d80"/>
    </linearGradient>
  </defs>
  <title>curious</title>
  <path d="M248.22,290.8s30.18-88.65-27.95-100c-54.05-10.58-33.78-43.52-18-89.36" transform="translate(-37.42 -58.85)" style="fill: none;stroke: #000;stroke-miterlimit: 10;stroke-width: 5px"/>
  <path d="M248.22,290.8S172.61,218.4,147,273c-27.07,57.75-77.76-10.83-77.76-10.83" transform="translate(-37.42 -58.85)" style="fill: none;stroke: #000;stroke-miterlimit: 10;stroke-width: 5px"/>
  <path d="M172.61,494.18s.59-154.9,77.48-154.9,77.3,154.9,77.3,154.9Z" transform="translate(-37.42 -58.85)" style="stroke: #000;stroke-miterlimit: 10;stroke-width: 3px;fill: url(#linear-gradient)"/>
  <path d="M248.22,290.8s110.19,20.89,98.9-39.3c-4.84-25.78-12.53-60.63,49.58-69.24" transform="translate(-37.42 -58.85)" style="fill: none;stroke: #000;stroke-miterlimit: 10;stroke-width: 5px"/>
  <g>
    <polygon points="164.87 84.14 128.8 63.38 128.8 21.79 164.87 42.55 164.87 84.14" style="fill: #f15a24;stroke: #000;stroke-linecap: round;stroke-linejoin: round;stroke-width: 2px"/>
    <polygon points="200.83 63.38 200.83 21.79 164.87 42.55 164.87 84.14 200.83 63.38" style="fill: #e6e600;stroke: #000;stroke-linecap: round;stroke-linejoin: round;stroke-width: 2px"/>
    <polygon points="164.82 1 128.8 21.79 164.87 42.55 200.83 21.79 164.82 1" style="fill: #2391bf;stroke: #000;stroke-linecap: round;stroke-linejoin: round;stroke-width: 2px"/>
  </g>
  <g>
    <polygon points="376.1 159.55 376.1 66.15 436.76 124.53 376.1 159.55" style="fill: #fba319;stroke: #000;stroke-linecap: round;stroke-linejoin: round;stroke-width: 2px"/>
    <polyline points="376.1 159.55 315.44 124.53 376.1 66.15" style="fill: #f7541e;stroke: #000;stroke-linecap: round;stroke-linejoin: round;stroke-width: 2px"/>
  </g>
  <g>
    <path d="M90.47,237.55c-.35,3.71-3.06,7.44-8.1,10.35a28.85,28.85,0,0,1-2.94,1.48c-9.77,4.27-23.13,4.32-32.17,0-.59-.27-1.16-.57-1.71-.89-4.2-2.43-6.54-5.53-7-8.78-.67-4.38,2-9,8-12.47,10.44-6,26.92-6.29,36.81-.59C88.48,229.59,90.83,233.57,90.47,237.55Z" transform="translate(-37.42 -58.85)" style="fill: #e6004c;stroke: #000;stroke-miterlimit: 10;stroke-width: 2px"/>
    <path d="M90.47,274.76v-1.61A8.66,8.66,0,0,1,90.47,274.76Z" transform="translate(-37.42 -58.85)" style="fill: #c60059;stroke: #000;stroke-miterlimit: 10;stroke-width: 2px"/>
    <path d="M90.47,237.55v37.24c-.36,3.71-3.07,7.42-8.1,10.33-10.44,6-26.93,6.29-36.82.58-5.12-2.95-7.47-6.93-7.09-10.91V239.7h.06c.49,3.25,2.83,6.35,7,8.78.55.32,1.12.62,1.71.89,9,4.33,22.4,4.28,32.17,0a28.85,28.85,0,0,0,2.94-1.48C87.41,245,90.12,241.26,90.47,237.55Z" transform="translate(-37.42 -58.85)" style="fill: #0c6;stroke: #000;stroke-miterlimit: 10;stroke-width: 2px"/>
  </g>
  <g>
    <path d="M286.33,290.8A38.34,38.34,0,1,1,248,252.46,38.38,38.38,0,0,1,286.33,290.8Z" transform="translate(-37.42 -58.85)" style="fill: #d9f2ff"/>
    <path d="M248,309a18.23,18.23,0,1,1,18.22-18.23A18.25,18.25,0,0,1,248,309m0-36a17.77,17.77,0,1,0,17.77,17.77A17.79,17.79,0,0,0,248,273" transform="translate(-37.42 -58.85)"/>
    <path d="M248,325.43a34.63,34.63,0,1,1,34.62-34.63A34.68,34.68,0,0,1,248,325.43Zm0-68.8a34.17,34.17,0,1,0,34.17,34.17A34.21,34.21,0,0,0,248,256.63Z" transform="translate(-37.42 -58.85)" style="fill: #404040"/>
    <rect x="236.54" y="260.45" width="0.91" height="4.57" transform="translate(-116.7 45.26) rotate(-21.31)"/>
    <rect x="258.53" y="316.82" width="0.91" height="4.57" transform="translate(-135.7 57.12) rotate(-21.32)"/>
    <rect x="257.84" y="262.75" width="4.57" height="0.91" transform="translate(-122.78 336.94) rotate(-66.33)"/>
    <rect x="233.57" y="318.18" width="4.57" height="0.91" transform="translate(-188.08 347.89) rotate(-66.33)"/>
    <rect x="273.49" y="278.48" width="4.57" height="0.91" transform="translate(-125.32 73.13) rotate(-23.32)"/>
    <rect x="217.92" y="302.44" width="4.57" height="0.91" transform="translate(-139.35 53.09) rotate(-23.32)"/>
    <rect x="275.69" y="299.7" width="0.91" height="4.57" transform="translate(-143.32 389.74) rotate(-68.55)"/>
    <rect x="219.38" y="277.57" width="0.91" height="4.57" transform="translate(-158.44 323.3) rotate(-68.55)"/>
    <polygon points="210.57 271.26 205.93 243.17 192.86 249.9 199.35 236.6 171.27 231.96 199.35 227.31 191.53 212.8 205.93 220.74 210.57 192.65 215.21 220.74 229.72 212.8 221.79 227.31 249.88 231.96 221.79 236.6 228.51 249.9 215.21 243.17 210.57 271.26 210.57 271.26" style="fill: #bf6913"/>
    <polygon points="210.57 196.07 210.57 231.96 214.58 221.96 210.57 196.07" style="fill: #e6e6e6"/>
    <polygon points="228.51 214.01 210.57 231.96 220.47 227.72 228.51 214.01" style="fill: #e6e6e6"/>
    <polygon points="246.46 231.96 210.57 231.96 220.57 235.97 246.46 231.96" style="fill: #e6e6e6"/>
    <polygon points="227.35 248.64 210.57 231.96 214.8 241.86 227.35 248.64" style="fill: #e6e6e6"/>
    <polygon points="210.8 267.84 210.8 231.96 206.79 241.95 210.8 267.84" style="fill: #e6e6e6"/>
    <path d="M248,330.11a39.31,39.31,0,1,1,39.3-39.31A39.35,39.35,0,0,1,248,330.11m0-77.65a38.34,38.34,0,1,0,38.34,38.34A38.38,38.38,0,0,0,248,252.46" transform="translate(-37.42 -58.85)" style="fill: #404040;stroke: #000;stroke-miterlimit: 10;stroke-width: 3px"/>
    <polygon points="194.18 248.64 210.8 231.96 200.9 236.19 194.18 248.64" style="fill: #e6e6e6"/>
    <polygon points="174.92 231.96 210.8 231.96 200.81 227.95 174.92 231.96" style="fill: #e6e6e6"/>
    <polygon points="193.72 214.69 210.8 231.96 206.57 222.05 193.72 214.69" style="fill: #e6e6e6"/>
  </g>
  <path d="M256.24,241.57c-1.79-9.81-4-19.61-8-28.76s-9.83-17.65-17.88-23.54" transform="translate(-37.42 -58.85)" style="fill: none"/>
  <path d="M275.77,318.58l67.7,60.88a5.36,5.36,0,0,0,6.16.8,8.08,8.08,0,0,0,3.65-5,5.47,5.47,0,0,0-1.78-5.78l-70.24-57.76Z" transform="translate(-37.42 -58.85)"/>
</svg>
