<svg id="Layer_1" data-name="Layer 1" xmlns="http://www.w3.org/2000/svg" xmlns:xlink="http://www.w3.org/1999/xlink" viewBox="0 0 218.66 134.4">
  <defs>
    <clipPath id="clip-path" transform="translate(-191.56 -232.76)">
      <path d="M293.79,257.46l-.49,5a1.09,1.09,0,0,1-.54.8l.49-5A1.07,1.07,0,0,0,293.79,257.46Z" style="fill: none"/>
    </clipPath>
    <clipPath id="clip-path-2" transform="translate(-191.56 -232.76)">
      <path d="M264.07,277.65l.49-5a1.07,1.07,0,0,0,.22.73,1.45,1.45,0,0,0,1.77.32l-.49,5a1.33,1.33,0,0,1-.61.17,1.37,1.37,0,0,1-1.16-.49A1,1,0,0,1,264.07,277.65Z" style="fill: none"/>
    </clipPath>
    <clipPath id="clip-path-3" transform="translate(-191.56 -232.76)">
      <path d="M300.72,261.45l-.49,5a1.06,1.06,0,0,1-.54.79l.49-5A1,1,0,0,0,300.72,261.45Z" style="fill: none"/>
    </clipPath>
    <clipPath id="clip-path-4" transform="translate(-191.56 -232.76)">
      <path d="M271.19,281.77l.49-5a1.05,1.05,0,0,0,.23.74,1.38,1.38,0,0,0,1.15.48,1.35,1.35,0,0,0,.62-.18l-.5,5a1.31,1.31,0,0,1-.61.18,1.4,1.4,0,0,1-1.16-.49A1,1,0,0,1,271.19,281.77Z" style="fill: none"/>
    </clipPath>
    <clipPath id="clip-path-5" transform="translate(-191.56 -232.76)">
      <path d="M274,253.39l-.5,5a2.05,2.05,0,0,1-1,1.56l.5-5A2,2,0,0,0,274,253.39Z" style="fill: none"/>
    </clipPath>
    <clipPath id="clip-path-6" transform="translate(-191.56 -232.76)">
      <path d="M248.61,269.57l.49-5a2,2,0,0,0,.45,1.44,2.78,2.78,0,0,0,3.48.6l-.49,5a2.66,2.66,0,0,1-1.22.36,2.78,2.78,0,0,1-2.27-1A2,2,0,0,1,248.61,269.57Z" style="fill: none"/>
    </clipPath>
    <clipPath id="clip-path-7" transform="translate(-191.56 -232.76)">
      <path d="M286.67,253.34l-.49,5a1,1,0,0,1-.54.79l.49-5A1,1,0,0,0,286.67,253.34Z" style="fill: none"/>
    </clipPath>
    <clipPath id="clip-path-8" transform="translate(-191.56 -232.76)">
      <path d="M257.13,273.57l.5-5a1,1,0,0,0,.22.74,1.43,1.43,0,0,0,1.16.49,1.5,1.5,0,0,0,.62-.19l-.49,5a1.28,1.28,0,0,1-.62.19,1.43,1.43,0,0,1-1.16-.49A1.05,1.05,0,0,1,257.13,273.57Z" style="fill: none"/>
    </clipPath>
    <clipPath id="clip-path-9" transform="translate(-191.56 -232.76)">
      <path d="M328.82,277.75l-.49,5a1.07,1.07,0,0,1-.54.8l.5-5A1.08,1.08,0,0,0,328.82,277.75Z" style="fill: none"/>
    </clipPath>
    <clipPath id="clip-path-10" transform="translate(-191.56 -232.76)">
      <path d="M299.28,297.9l.49-5a1,1,0,0,0,.23.73,1.41,1.41,0,0,0,1.77.32l-.5,5a1.31,1.31,0,0,1-.61.18,1.38,1.38,0,0,1-1.16-.5A1,1,0,0,1,299.28,297.9Z" style="fill: none"/>
    </clipPath>
    <clipPath id="clip-path-11" transform="translate(-191.56 -232.76)">
      <path d="M335.84,281.77l-.49,5a1.08,1.08,0,0,1-.53.8l.49-5A1,1,0,0,0,335.84,281.77Z" style="fill: none"/>
    </clipPath>
    <clipPath id="clip-path-12" transform="translate(-191.56 -232.76)">
      <path d="M306.37,302l.49-5a1,1,0,0,0,.23.73,1.36,1.36,0,0,0,1.15.49,1.28,1.28,0,0,0,.61-.18l-.49,5a1.32,1.32,0,0,1-.61.19,1.41,1.41,0,0,1-1.16-.5A1,1,0,0,1,306.37,302Z" style="fill: none"/>
    </clipPath>
    <clipPath id="clip-path-13" transform="translate(-191.56 -232.76)">
      <path d="M309.17,273.72l-.49,5a2.06,2.06,0,0,1-1.06,1.57l.49-5A2,2,0,0,0,309.17,273.72Z" style="fill: none"/>
    </clipPath>
    <clipPath id="clip-path-14" transform="translate(-191.56 -232.76)">
      <path d="M283.75,289.77l.49-5a2,2,0,0,0,.44,1.42,2.78,2.78,0,0,0,3.48.63l-.49,5a2.64,2.64,0,0,1-1.21.35,2.71,2.71,0,0,1-2.27-1A2,2,0,0,1,283.75,289.77Z" style="fill: none"/>
    </clipPath>
    <clipPath id="clip-path-15" transform="translate(-191.56 -232.76)">
      <path d="M321.91,273.64l-.49,5a1,1,0,0,1-.54.79l.49-5A1,1,0,0,0,321.91,273.64Z" style="fill: none"/>
    </clipPath>
    <clipPath id="clip-path-16" transform="translate(-191.56 -232.76)">
      <path d="M292.25,293.8l.49-5a1,1,0,0,0,.23.72,1.38,1.38,0,0,0,1.16.5,1.35,1.35,0,0,0,.61-.18l-.5,5a1.39,1.39,0,0,1-.61.17,1.42,1.42,0,0,1-1.16-.49A1.07,1.07,0,0,1,292.25,293.8Z" style="fill: none"/>
    </clipPath>
    <clipPath id="clip-path-17" transform="translate(-191.56 -232.76)">
      <path d="M363.88,298l-.49,5a1,1,0,0,1-.54.79l.49-5A1,1,0,0,0,363.88,298Z" style="fill: none"/>
    </clipPath>
    <clipPath id="clip-path-18" transform="translate(-191.56 -232.76)">
      <path d="M334.28,318.31l.49-5a1,1,0,0,0,.23.73l-.5,5A1,1,0,0,1,334.28,318.31Z" style="fill: none"/>
    </clipPath>
    <clipPath id="clip-path-19" transform="translate(-191.56 -232.76)">
      <path d="M336.77,314.31l-.49,5a1.35,1.35,0,0,1-.62.18,1.41,1.41,0,0,1-1.16-.48l.5-5a1.4,1.4,0,0,0,1.15.49A1.35,1.35,0,0,0,336.77,314.31Z" style="fill: none"/>
    </clipPath>
    <clipPath id="clip-path-20" transform="translate(-191.56 -232.76)">
      <path d="M371,302.05l-.49,5a1,1,0,0,1-.54.79l.5-5A1.06,1.06,0,0,0,371,302.05Z" style="fill: none"/>
    </clipPath>
    <clipPath id="clip-path-21" transform="translate(-191.56 -232.76)">
      <path d="M341.42,322.29l.5-5a.94.94,0,0,0,.23.73l-.5,5A1,1,0,0,1,341.42,322.29Z" style="fill: none"/>
    </clipPath>
    <clipPath id="clip-path-22" transform="translate(-191.56 -232.76)">
      <path d="M343.92,318.3l-.5,5a1.35,1.35,0,0,1-.61.18,1.39,1.39,0,0,1-1.16-.49l.5-5a1.42,1.42,0,0,0,1.77.31Z" style="fill: none"/>
    </clipPath>
    <clipPath id="clip-path-23" transform="translate(-191.56 -232.76)">
      <path d="M344.2,294l-.49,5a2.06,2.06,0,0,1-1,1.56l.49-5A2.06,2.06,0,0,0,344.2,294Z" style="fill: none"/>
    </clipPath>
    <clipPath id="clip-path-24" transform="translate(-191.56 -232.76)">
      <path d="M318.81,310.14l.5-5a2,2,0,0,0,.44,1.44,2.8,2.8,0,0,0,3.48.61l-.49,5a2.61,2.61,0,0,1-1.21.35,2.72,2.72,0,0,1-2.27-1A2,2,0,0,1,318.81,310.14Z" style="fill: none"/>
    </clipPath>
    <clipPath id="clip-path-25" transform="translate(-191.56 -232.76)">
      <path d="M356.92,293.93l-.5,5a1,1,0,0,1-.53.79l.49-5A1,1,0,0,0,356.92,293.93Z" style="fill: none"/>
    </clipPath>
    <clipPath id="clip-path-26" transform="translate(-191.56 -232.76)">
      <path d="M327.38,314.2l.49-5a1.05,1.05,0,0,0,.23.74,1.43,1.43,0,0,0,1.77.3l-.49,5a1.42,1.42,0,0,1-1.77-.31A1.05,1.05,0,0,1,327.38,314.2Z" style="fill: none"/>
    </clipPath>
    <clipPath id="clip-path-27" transform="translate(-191.56 -232.76)">
      <path d="M272.23,295.48v5.87a32.15,32.15,0,0,1-3.32-3.07l0-5.87A31.18,31.18,0,0,0,272.23,295.48Z" style="fill: none"/>
    </clipPath>
    <clipPath id="clip-path-28" transform="translate(-191.56 -232.76)">
      <path d="M241.93,305.5l0-5.87c0-.93.64-1.77,1.93-2.52a11.28,11.28,0,0,1,2.56-1c1-.28,2-.53,3.11-.75l0,5.87c-1.07.22-2.11.47-3.11.75a11.28,11.28,0,0,0-2.56,1C242.58,303.73,241.93,304.57,241.93,305.5Z" style="fill: none"/>
    </clipPath>
    <clipPath id="clip-path-29" transform="translate(-191.56 -232.76)">
      <path d="M236.42,306.1l0-5.86a4.4,4.4,0,0,0,.69,2.3,11.73,11.73,0,0,0,4.26,3.74,21.09,21.09,0,0,0,9.7,3A16.63,16.63,0,0,0,260.2,307a13.58,13.58,0,0,0,4.35-3.7l0,5.87a13.35,13.35,0,0,1-4.35,3.69,16.52,16.52,0,0,1-9.1,2.29,21,21,0,0,1-9.71-3,11.71,11.71,0,0,1-4.26-3.73A4.5,4.5,0,0,1,236.42,306.1Z" style="fill: none"/>
    </clipPath>
  </defs>
  <title>cv</title>
  <polygon points="0 52.94 126.96 126.25 218.66 73.31 91.69 0 0 52.94" style="fill: #d9d9d9"/>
  <g style="isolation: isolate">
    <g style="isolation: isolate">
      <g style="clip-path: url(#clip-path)">
        <g style="isolation: isolate">
          <path d="M293.79,257.46l-.49,5a1,1,0,0,1-.38.69l.49-5a1.07,1.07,0,0,0,.38-.69" transform="translate(-191.56 -232.76)" style="fill: #3b3b3b"/>
          <path d="M293.41,258.15l-.49,5-.16.11.49-5,.16-.11" transform="translate(-191.56 -232.76)" style="fill: #393939"/>
        </g>
      </g>
    </g>
    <polygon points="101.69 25.49 101.2 30.52 74.5 45.93 74.99 40.9 101.69 25.49" style="fill: #3d3d3d"/>
    <g style="isolation: isolate">
      <g style="clip-path: url(#clip-path-2)">
        <g style="isolation: isolate">
          <path d="M266.55,273.67l-.49,5-.16.08.49-5,.16-.07" transform="translate(-191.56 -232.76)" style="fill: #393939"/>
          <path d="M266.39,273.74l-.49,5a2,2,0,0,1-.35.09l.49-5a1.06,1.06,0,0,0,.35-.09" transform="translate(-191.56 -232.76)" style="fill: #373737"/>
          <path d="M266,273.83l-.49,5h-.1a1.37,1.37,0,0,1-1.16-.49,1,1,0,0,1-.22-.73l.49-5a1.07,1.07,0,0,0,.22.73,1.4,1.4,0,0,0,1.16.49h.1" transform="translate(-191.56 -232.76)" style="fill: #353535"/>
        </g>
      </g>
    </g>
    <path d="M292.4,256.24a1.38,1.38,0,0,1,1.17.49,1,1,0,0,1-.32,1.53l-26.7,15.41a1.45,1.45,0,0,1-1.77-.32,1,1,0,0,1,.32-1.53l26.69-15.41A1.33,1.33,0,0,1,292.4,256.24Z" transform="translate(-191.56 -232.76)" style="fill: #5f5f5f"/>
  </g>
  <g style="isolation: isolate">
    <g style="isolation: isolate">
      <g style="clip-path: url(#clip-path-3)">
        <g style="isolation: isolate">
          <path d="M300.72,261.45l-.49,5a1,1,0,0,1-.38.68l.49-5a1,1,0,0,0,.38-.68" transform="translate(-191.56 -232.76)" style="fill: #3b3b3b"/>
          <path d="M300.34,262.13l-.49,5a.91.91,0,0,1-.16.11l.49-5a.91.91,0,0,0,.16-.11" transform="translate(-191.56 -232.76)" style="fill: #393939"/>
        </g>
      </g>
    </g>
    <polygon points="108.62 29.48 108.13 34.51 81.63 50.04 82.12 45.01 108.62 29.48" style="fill: #3d3d3d"/>
    <g style="isolation: isolate">
      <g style="clip-path: url(#clip-path-4)">
        <g style="isolation: isolate">
          <path d="M273.68,277.77l-.5,5-.17.08.49-5,.18-.09" transform="translate(-191.56 -232.76)" style="fill: #393939"/>
          <path d="M273.5,277.86l-.49,5a1.39,1.39,0,0,1-.35.09l.5-5a2.14,2.14,0,0,0,.34-.09" transform="translate(-191.56 -232.76)" style="fill: #373737"/>
          <path d="M273.16,278l-.5,5h-.09a1.4,1.4,0,0,1-1.16-.49,1,1,0,0,1-.22-.73l.49-5a1.05,1.05,0,0,0,.23.74,1.38,1.38,0,0,0,1.15.48h.1" transform="translate(-191.56 -232.76)" style="fill: #353535"/>
        </g>
      </g>
    </g>
    <path d="M299.33,260.23a1.37,1.37,0,0,1,1.16.49,1,1,0,0,1-.31,1.52l-26.5,15.53a1.35,1.35,0,0,1-.62.18,1.38,1.38,0,0,1-1.15-.48,1,1,0,0,1,.3-1.53l26.5-15.53A1.39,1.39,0,0,1,299.33,260.23Z" transform="translate(-191.56 -232.76)" style="fill: #5f5f5f"/>
  </g>
  <g style="isolation: isolate">
    <g style="isolation: isolate">
      <g style="clip-path: url(#clip-path-5)">
        <g style="isolation: isolate">
          <path d="M274,253.39l-.5,5a2,2,0,0,1-.74,1.34l.49-5a2,2,0,0,0,.75-1.35" transform="translate(-191.56 -232.76)" style="fill: #21692b"/>
          <path d="M273.28,254.74l-.49,5a2.44,2.44,0,0,1-.31.22l.5-5a1.61,1.61,0,0,0,.3-.21" transform="translate(-191.56 -232.76)" style="fill: #206529"/>
        </g>
      </g>
    </g>
    <polygon points="81.42 22.19 80.93 27.22 60.98 38.85 61.47 33.82 81.42 22.19" style="fill: #226c2c"/>
    <g style="isolation: isolate">
      <g style="clip-path: url(#clip-path-6)">
        <g style="isolation: isolate">
          <path d="M253,266.58l-.49,5a2.26,2.26,0,0,1-.35.17l.5-5a2.7,2.7,0,0,0,.34-.17" transform="translate(-191.56 -232.76)" style="fill: #206529"/>
          <path d="M252.69,266.75l-.5,5a2.19,2.19,0,0,1-.68.17l.5-5a2.71,2.71,0,0,0,.68-.17" transform="translate(-191.56 -232.76)" style="fill: #1f6228"/>
          <path d="M252,266.92l-.5,5-.19,0a2.78,2.78,0,0,1-2.27-1,2,2,0,0,1-.44-1.44l.49-5a2,2,0,0,0,.45,1.44,2.76,2.76,0,0,0,2.27,1l.19,0" transform="translate(-191.56 -232.76)" style="fill: #1e5e26"/>
        </g>
      </g>
    </g>
    <path d="M271.31,251a2.74,2.74,0,0,1,2.27,1,2,2,0,0,1-.6,3l-20,11.63a2.78,2.78,0,0,1-3.48-.6,2,2,0,0,1,.6-3l20-11.63A2.74,2.74,0,0,1,271.31,251Z" transform="translate(-191.56 -232.76)" style="fill: #35a945"/>
  </g>
  <g style="isolation: isolate">
    <g style="isolation: isolate">
      <g style="clip-path: url(#clip-path-7)">
        <g style="isolation: isolate">
          <path d="M286.67,253.34l-.49,5a1,1,0,0,1-.38.68l.49-5a1,1,0,0,0,.38-.68" transform="translate(-191.56 -232.76)" style="fill: #3b3b3b"/>
          <path d="M286.29,254l-.49,5a.91.91,0,0,1-.16.11l.49-5,.16-.11" transform="translate(-191.56 -232.76)" style="fill: #393939"/>
        </g>
      </g>
    </g>
    <polygon points="94.58 21.36 94.08 26.39 67.58 41.85 68.07 36.82 94.58 21.36" style="fill: #3d3d3d"/>
    <g style="isolation: isolate">
      <g style="clip-path: url(#clip-path-8)">
        <g style="isolation: isolate">
          <path d="M259.63,269.58l-.49,5-.18.09.49-5,.18-.09" transform="translate(-191.56 -232.76)" style="fill: #393939"/>
          <path d="M259.45,269.67l-.49,5a1.06,1.06,0,0,1-.35.09l.5-5a2.14,2.14,0,0,0,.34-.09" transform="translate(-191.56 -232.76)" style="fill: #373737"/>
          <path d="M259.11,269.76l-.5,5h-.09a1.43,1.43,0,0,1-1.16-.49,1.05,1.05,0,0,1-.23-.74l.5-5a1,1,0,0,0,.22.74,1.43,1.43,0,0,0,1.16.49h.1" transform="translate(-191.56 -232.76)" style="fill: #353535"/>
        </g>
      </g>
    </g>
    <path d="M285.29,252.11a1.38,1.38,0,0,1,1.15.5,1,1,0,0,1-.31,1.52l-26.5,15.45a1.5,1.5,0,0,1-.62.19,1.43,1.43,0,0,1-1.16-.49,1,1,0,0,1,.31-1.53l26.51-15.46A1.35,1.35,0,0,1,285.29,252.11Z" transform="translate(-191.56 -232.76)" style="fill: #5f5f5f"/>
  </g>
  <g style="isolation: isolate">
    <g style="isolation: isolate">
      <g style="clip-path: url(#clip-path-9)">
        <g style="isolation: isolate">
          <path d="M328.82,277.75l-.49,5a1,1,0,0,1-.38.69l.49-5a1,1,0,0,0,.38-.69" transform="translate(-191.56 -232.76)" style="fill: #3b3b3b"/>
          <path d="M328.44,278.44l-.49,5a.91.91,0,0,1-.16.11l.5-5,.15-.11" transform="translate(-191.56 -232.76)" style="fill: #393939"/>
        </g>
      </g>
    </g>
    <polygon points="136.73 45.78 136.24 50.81 109.72 66.19 110.21 61.16 136.73 45.78" style="fill: #3d3d3d"/>
    <g style="isolation: isolate">
      <g style="clip-path: url(#clip-path-10)">
        <g style="isolation: isolate">
          <path d="M301.77,293.92l-.5,5-.16.08.5-5,.16-.08" transform="translate(-191.56 -232.76)" style="fill: #393939"/>
          <path d="M301.61,294l-.5,5a1.06,1.06,0,0,1-.35.09l.49-5a2.37,2.37,0,0,0,.36-.09" transform="translate(-191.56 -232.76)" style="fill: #373737"/>
          <path d="M301.25,294.09l-.49,5h-.1a1.38,1.38,0,0,1-1.16-.5,1,1,0,0,1-.22-.73l.49-5a1,1,0,0,0,.23.73,1.35,1.35,0,0,0,1.15.5h.1" transform="translate(-191.56 -232.76)" style="fill: #353535"/>
        </g>
      </g>
    </g>
    <path d="M327.44,276.52a1.41,1.41,0,0,1,1.16.5,1,1,0,0,1-.31,1.53l-26.52,15.37a1.41,1.41,0,0,1-1.77-.32,1,1,0,0,1,.31-1.52l26.52-15.38A1.48,1.48,0,0,1,327.44,276.52Z" transform="translate(-191.56 -232.76)" style="fill: #5f5f5f"/>
  </g>
  <g style="isolation: isolate">
    <g style="isolation: isolate">
      <g style="clip-path: url(#clip-path-11)">
        <g style="isolation: isolate">
          <path d="M335.84,281.77l-.49,5a1,1,0,0,1-.38.69l.49-5a1.07,1.07,0,0,0,.38-.69" transform="translate(-191.56 -232.76)" style="fill: #3b3b3b"/>
          <path d="M335.46,282.46l-.49,5-.15.11.49-5,.15-.1" transform="translate(-191.56 -232.76)" style="fill: #393939"/>
        </g>
      </g>
    </g>
    <polygon points="143.75 49.8 143.26 54.83 116.81 70.32 117.3 65.29 143.75 49.8" style="fill: #3d3d3d"/>
    <g style="isolation: isolate">
      <g style="clip-path: url(#clip-path-12)">
        <g style="isolation: isolate">
          <path d="M308.85,298.05l-.49,5a.56.56,0,0,1-.17.09l.49-5a.91.91,0,0,0,.17-.09" transform="translate(-191.56 -232.76)" style="fill: #393939"/>
          <path d="M308.68,298.14l-.49,5a2,2,0,0,1-.35.09l.5-5a1.4,1.4,0,0,0,.34-.08" transform="translate(-191.56 -232.76)" style="fill: #373737"/>
          <path d="M308.34,298.22l-.5,5h-.09a1.41,1.41,0,0,1-1.16-.5,1,1,0,0,1-.22-.73l.49-5a1,1,0,0,0,.23.73,1.36,1.36,0,0,0,1.15.49h.1" transform="translate(-191.56 -232.76)" style="fill: #353535"/>
        </g>
      </g>
    </g>
    <path d="M334.46,280.55a1.37,1.37,0,0,1,1.15.49,1,1,0,0,1-.3,1.52l-26.46,15.49a1.28,1.28,0,0,1-.61.18,1.36,1.36,0,0,1-1.15-.49,1,1,0,0,1,.3-1.52l26.45-15.49A1.35,1.35,0,0,1,334.46,280.55Z" transform="translate(-191.56 -232.76)" style="fill: #5f5f5f"/>
  </g>
  <g style="isolation: isolate">
    <g style="isolation: isolate">
      <g style="clip-path: url(#clip-path-13)">
        <g style="isolation: isolate">
          <path d="M309.17,273.72l-.49,5a2,2,0,0,1-.74,1.35l.49-5a2,2,0,0,0,.74-1.34" transform="translate(-191.56 -232.76)" style="fill: #8c3415"/>
          <path d="M308.43,275.06l-.49,5a3.62,3.62,0,0,1-.32.22l.49-5a2.27,2.27,0,0,0,.32-.22" transform="translate(-191.56 -232.76)" style="fill: #873214"/>
        </g>
      </g>
    </g>
    <polygon points="116.55 42.52 116.06 47.55 96.11 59.05 96.6 54.02 116.55 42.52" style="fill: #903615"/>
    <g style="isolation: isolate">
      <g style="clip-path: url(#clip-path-14)">
        <g style="isolation: isolate">
          <path d="M288.16,286.79l-.49,5a2.6,2.6,0,0,1-.34.16l.49-5,.34-.16" transform="translate(-191.56 -232.76)" style="fill: #873214"/>
          <path d="M287.82,287l-.49,5a2.73,2.73,0,0,1-.68.18l.49-5a2.34,2.34,0,0,0,.68-.17" transform="translate(-191.56 -232.76)" style="fill: #823113"/>
          <path d="M287.14,287.12l-.49,5h-.19a2.71,2.71,0,0,1-2.27-1,2,2,0,0,1-.44-1.43l.49-5a2,2,0,0,0,.44,1.42,2.72,2.72,0,0,0,2.27,1l.19,0" transform="translate(-191.56 -232.76)" style="fill: #7d2f13"/>
        </g>
      </g>
    </g>
    <path d="M306.45,271.31a2.76,2.76,0,0,1,2.28,1,2,2,0,0,1-.62,3l-19.95,11.51a2.78,2.78,0,0,1-3.48-.63,2,2,0,0,1,.62-3l19.95-11.51A2.86,2.86,0,0,1,306.45,271.31Z" transform="translate(-191.56 -232.76)" style="fill: #e15422"/>
  </g>
  <g style="isolation: isolate">
    <g style="isolation: isolate">
      <g style="clip-path: url(#clip-path-15)">
        <g style="isolation: isolate">
          <path d="M321.91,273.64l-.49,5a1,1,0,0,1-.37.68l.49-5a1,1,0,0,0,.37-.68" transform="translate(-191.56 -232.76)" style="fill: #3b3b3b"/>
          <path d="M321.54,274.32l-.49,5-.17.11.49-5a.74.74,0,0,0,.17-.12" transform="translate(-191.56 -232.76)" style="fill: #393939"/>
        </g>
      </g>
    </g>
    <polygon points="129.82 41.67 129.32 46.71 102.69 62.08 103.18 57.05 129.82 41.67" style="fill: #3d3d3d"/>
    <g style="isolation: isolate">
      <g style="clip-path: url(#clip-path-16)">
        <g style="isolation: isolate">
          <path d="M294.74,289.81l-.5,5-.16.07.5-5,.16-.08" transform="translate(-191.56 -232.76)" style="fill: #393939"/>
          <path d="M294.58,289.89l-.5,5a1.06,1.06,0,0,1-.35.09l.49-5a1.19,1.19,0,0,0,.36-.09" transform="translate(-191.56 -232.76)" style="fill: #373737"/>
          <path d="M294.22,290l-.49,5h-.1a1.42,1.42,0,0,1-1.16-.49,1.07,1.07,0,0,1-.22-.73l.49-5a1,1,0,0,0,.23.72,1.38,1.38,0,0,0,1.16.5h.09" transform="translate(-191.56 -232.76)" style="fill: #353535"/>
        </g>
      </g>
    </g>
    <path d="M320.54,272.42a1.36,1.36,0,0,1,1.15.5,1,1,0,0,1-.32,1.52l-26.63,15.37a1.35,1.35,0,0,1-.61.18,1.38,1.38,0,0,1-1.16-.5,1,1,0,0,1,.32-1.52l26.63-15.37A1.35,1.35,0,0,1,320.54,272.42Z" transform="translate(-191.56 -232.76)" style="fill: #5f5f5f"/>
  </g>
  <g style="isolation: isolate">
    <g style="isolation: isolate">
      <g style="clip-path: url(#clip-path-17)">
        <g style="isolation: isolate">
          <path d="M363.88,298l-.49,5a1,1,0,0,1-.38.68l.49-5a1,1,0,0,0,.38-.68" transform="translate(-191.56 -232.76)" style="fill: #3b3b3b"/>
          <path d="M363.5,298.71l-.49,5a.91.91,0,0,1-.16.11l.49-5a.64.64,0,0,0,.16-.11" transform="translate(-191.56 -232.76)" style="fill: #393939"/>
        </g>
      </g>
    </g>
    <g style="isolation: isolate">
      <g style="clip-path: url(#clip-path-18)">
        <g style="isolation: isolate">
          <path d="M335,314l-.5,5a1,1,0,0,1-.22-.73l.49-5a1,1,0,0,0,.23.73" transform="translate(-191.56 -232.76)" style="fill: #353535"/>
        </g>
      </g>
    </g>
    <polygon points="171.79 66.06 171.29 71.09 144.72 86.58 145.22 81.55 171.79 66.06" style="fill: #3d3d3d"/>
    <g style="isolation: isolate">
      <g style="clip-path: url(#clip-path-19)">
        <g style="isolation: isolate">
          <path d="M336.77,314.31l-.49,5-.17.09.49-5,.17-.08" transform="translate(-191.56 -232.76)" style="fill: #393939"/>
          <path d="M336.6,314.39l-.49,5a1.37,1.37,0,0,1-.35.08l.49-5a1.06,1.06,0,0,0,.35-.09" transform="translate(-191.56 -232.76)" style="fill: #373737"/>
          <path d="M336.25,314.48l-.49,5h-.1a1.41,1.41,0,0,1-1.16-.48l.5-5a1.4,1.4,0,0,0,1.15.49h.1" transform="translate(-191.56 -232.76)" style="fill: #353535"/>
        </g>
      </g>
    </g>
    <path d="M362.49,296.8a1.4,1.4,0,0,1,1.16.49,1,1,0,0,1-.31,1.53l-26.57,15.49a1.35,1.35,0,0,1-.62.18A1.4,1.4,0,0,1,335,314a1,1,0,0,1,.31-1.53L361.88,297A1.31,1.31,0,0,1,362.49,296.8Z" transform="translate(-191.56 -232.76)" style="fill: #5f5f5f"/>
  </g>
  <g style="isolation: isolate">
    <g style="isolation: isolate">
      <g style="clip-path: url(#clip-path-20)">
        <g style="isolation: isolate">
          <path d="M371,302.05l-.49,5a1.07,1.07,0,0,1-.38.69l.49-5a1,1,0,0,0,.38-.69" transform="translate(-191.56 -232.76)" style="fill: #3b3b3b"/>
          <path d="M370.61,302.74l-.49,5-.16.1.5-5,.15-.11" transform="translate(-191.56 -232.76)" style="fill: #393939"/>
        </g>
      </g>
    </g>
    <g style="isolation: isolate">
      <g style="clip-path: url(#clip-path-21)">
        <g style="isolation: isolate">
          <path d="M342.15,318l-.5,5a1,1,0,0,1-.23-.73l.5-5a.94.94,0,0,0,.23.73" transform="translate(-191.56 -232.76)" style="fill: #353535"/>
        </g>
      </g>
    </g>
    <polygon points="178.9 70.09 178.41 75.12 151.87 90.57 152.36 85.53 178.9 70.09" style="fill: #3d3d3d"/>
    <g style="isolation: isolate">
      <g style="clip-path: url(#clip-path-22)">
        <g style="isolation: isolate">
          <path d="M343.92,318.3l-.5,5-.17.09.49-5,.18-.08" transform="translate(-191.56 -232.76)" style="fill: #393939"/>
          <path d="M343.74,318.38l-.49,5a1.37,1.37,0,0,1-.35.08l.49-5a1.06,1.06,0,0,0,.35-.09" transform="translate(-191.56 -232.76)" style="fill: #373737"/>
          <path d="M343.39,318.47l-.49,5h-.09a1.39,1.39,0,0,1-1.16-.49l.5-5a1.38,1.38,0,0,0,1.15.49h.09" transform="translate(-191.56 -232.76)" style="fill: #353535"/>
        </g>
      </g>
    </g>
    <path d="M369.61,300.84a1.37,1.37,0,0,1,1.16.49,1,1,0,0,1-.31,1.52L343.92,318.3a1.42,1.42,0,0,1-1.77-.31,1,1,0,0,1,.3-1.53L369,301A1.35,1.35,0,0,1,369.61,300.84Z" transform="translate(-191.56 -232.76)" style="fill: #5f5f5f"/>
  </g>
  <g style="isolation: isolate">
    <g style="isolation: isolate">
      <g style="clip-path: url(#clip-path-23)">
        <g style="isolation: isolate">
          <path d="M344.2,294l-.49,5a2,2,0,0,1-.74,1.35l.49-5a2,2,0,0,0,.74-1.35" transform="translate(-191.56 -232.76)" style="fill: #8f5511"/>
          <path d="M343.46,295.31l-.49,5-.3.21.49-5,.3-.21" transform="translate(-191.56 -232.76)" style="fill: #8a5211"/>
        </g>
      </g>
    </g>
    <polygon points="151.6 62.75 151.11 67.78 131.18 79.43 131.67 74.39 151.6 62.75" style="fill: #935812"/>
    <g style="isolation: isolate">
      <g style="clip-path: url(#clip-path-24)">
        <g style="isolation: isolate">
          <path d="M323.23,307.16l-.49,5a1.5,1.5,0,0,1-.34.16l.5-5a2.49,2.49,0,0,0,.33-.16" transform="translate(-191.56 -232.76)" style="fill: #8a5211"/>
          <path d="M322.9,307.32l-.5,5a2.73,2.73,0,0,1-.68.18l.49-5a2.81,2.81,0,0,0,.69-.18" transform="translate(-191.56 -232.76)" style="fill: #854f10"/>
          <path d="M322.21,307.5l-.49,5h-.19a2.72,2.72,0,0,1-2.27-1,2,2,0,0,1-.45-1.44l.5-5a2,2,0,0,0,.44,1.44,2.72,2.72,0,0,0,2.27,1h.19" transform="translate(-191.56 -232.76)" style="fill: #804c10"/>
        </g>
      </g>
    </g>
    <path d="M341.49,291.56a2.73,2.73,0,0,1,2.27,1,2,2,0,0,1-.6,3l-19.93,11.64a2.8,2.8,0,0,1-3.48-.61,2,2,0,0,1,.61-3l19.91-11.65A2.77,2.77,0,0,1,341.49,291.56Z" transform="translate(-191.56 -232.76)" style="fill: #e7891c"/>
  </g>
  <g style="isolation: isolate">
    <g style="isolation: isolate">
      <g style="clip-path: url(#clip-path-25)">
        <g style="isolation: isolate">
          <path d="M356.92,293.93l-.5,5a1,1,0,0,1-.37.68l.49-5a1,1,0,0,0,.38-.69" transform="translate(-191.56 -232.76)" style="fill: #3b3b3b"/>
          <path d="M356.54,294.62l-.49,5-.16.11.49-5a.91.91,0,0,0,.16-.11" transform="translate(-191.56 -232.76)" style="fill: #393939"/>
        </g>
      </g>
    </g>
    <polygon points="164.82 61.96 164.33 67 137.82 82.48 138.31 77.45 164.82 61.96" style="fill: #3d3d3d"/>
    <g style="isolation: isolate">
      <g style="clip-path: url(#clip-path-26)">
        <g style="isolation: isolate">
          <path d="M329.87,310.21l-.49,5-.18.08.5-5,.17-.09" transform="translate(-191.56 -232.76)" style="fill: #393939"/>
          <path d="M329.7,310.3l-.5,5a2,2,0,0,1-.35.09l.5-5a2.25,2.25,0,0,0,.35-.09" transform="translate(-191.56 -232.76)" style="fill: #373737"/>
          <path d="M329.35,310.39l-.5,5h-.09a1.38,1.38,0,0,1-1.15-.49,1.05,1.05,0,0,1-.23-.74l.49-5a1.05,1.05,0,0,0,.23.74,1.38,1.38,0,0,0,1.15.48h.1" transform="translate(-191.56 -232.76)" style="fill: #353535"/>
        </g>
      </g>
    </g>
    <path d="M355.53,292.71a1.38,1.38,0,0,1,1.16.5,1,1,0,0,1-.31,1.52l-26.51,15.48a1.43,1.43,0,0,1-1.77-.3,1,1,0,0,1,.3-1.53l26.51-15.49A1.39,1.39,0,0,1,355.53,292.71Z" transform="translate(-191.56 -232.76)" style="fill: #5f5f5f"/>
  </g>
  <path d="M239.47,270.87" transform="translate(-191.56 -232.76)" style="fill: none;stroke: #009245;stroke-linecap: round;stroke-linejoin: round;stroke-width: 5.09615361690521px"/>
  <polygon points="218.66 73.31 218.66 81.45 126.96 134.4 126.96 126.25 218.66 73.31" style="fill: #545454"/>
  <polygon points="0 52.94 0 61.09 126.96 134.4 126.96 126.25 0 52.94" style="fill: #545454"/>
  <g>
    <g style="isolation: isolate">
      <polygon points="77.36 59.64 77.34 65.51 69.36 56.62 69.38 50.76 77.36 59.64" style="fill: #770f3d"/>
      <g style="isolation: isolate">
        <g style="clip-path: url(#clip-path-27)">
          <g style="isolation: isolate">
            <path d="M272.23,295.48v5.87a32.15,32.15,0,0,1-3.32-3.07l0-5.87a31.18,31.18,0,0,0,3.31,3.07" transform="translate(-191.56 -232.76)" style="fill: #7b103f"/>
          </g>
        </g>
      </g>
      <polygon points="82.04 66.13 82.02 72 55.79 64.51 55.81 58.64 82.04 66.13" style="fill: #8f1249"/>
      <polygon points="86.54 63.51 86.52 69.38 82.02 72 82.04 66.13 86.54 63.51" style="fill: #b7175d"/>
      <path d="M265.11,281.09l13,15.18-4.51,2.62-26.22-7.49,4.16-2.42,15.35,4.61c.9.28,1.9.62,3,1s1.9.68,2.31.86a31.18,31.18,0,0,1-3.31-3.07l-8-8.89Z" transform="translate(-191.56 -232.76)" style="fill: #cc1a68"/>
    </g>
    <g style="isolation: isolate">
      <g style="isolation: isolate">
        <g style="clip-path: url(#clip-path-28)">
          <g style="isolation: isolate">
            <path d="M249.55,295.33l0,5.87c-1.07.22-2.11.47-3.11.75l-.51.15,0-5.87.51-.15c1-.28,2-.53,3.11-.75" transform="translate(-191.56 -232.76)" style="fill: #a61555"/>
            <path d="M245.93,296.23l0,5.87a10.53,10.53,0,0,0-2,.88l-.11.07v-5.87l.12-.07a10.27,10.27,0,0,1,2.05-.88" transform="translate(-191.56 -232.76)" style="fill: #ab1657"/>
            <path d="M243.76,297.18v5.87a5.6,5.6,0,0,0-.93.68l0-5.87a5.94,5.94,0,0,1,.92-.68" transform="translate(-191.56 -232.76)" style="fill: #a61555"/>
            <path d="M242.84,297.86l0,5.87a3.55,3.55,0,0,0-.38.41v-5.86a3.74,3.74,0,0,1,.39-.42" transform="translate(-191.56 -232.76)" style="fill: #a11452"/>
            <path d="M242.45,298.28v5.86a2.33,2.33,0,0,0-.23.35v-5.87a4,4,0,0,1,.23-.34" transform="translate(-191.56 -232.76)" style="fill: #9c1450"/>
            <path d="M242.22,298.62v5.87a1.77,1.77,0,0,0-.15.31l0-5.87c0-.1.09-.21.14-.31" transform="translate(-191.56 -232.76)" style="fill: #98134d"/>
            <path d="M242.08,298.93l0,5.87a1.92,1.92,0,0,0-.09.32l0-5.87a1.92,1.92,0,0,1,.09-.32" transform="translate(-191.56 -232.76)" style="fill: #93134b"/>
            <path d="M242,299.25l0,5.87a1.86,1.86,0,0,0,0,.33l0-5.87a1.24,1.24,0,0,1,0-.33" transform="translate(-191.56 -232.76)" style="fill: #8e1249"/>
            <path d="M242,299.58l0,5.87v.05l0-5.87v-.05" transform="translate(-191.56 -232.76)" style="fill: #891146"/>
          </g>
        </g>
      </g>
      <g style="isolation: isolate">
        <g style="clip-path: url(#clip-path-29)">
          <g style="isolation: isolate">
            <path d="M264.55,303.29l0,5.87c-.08.12-.17.23-.26.35l0-5.87c.09-.11.18-.23.26-.35" transform="translate(-191.56 -232.76)" style="fill: #9c1450"/>
            <path d="M264.29,303.64l0,5.87a10.25,10.25,0,0,1-1.11,1.2v-5.87a9.56,9.56,0,0,0,1.12-1.2" transform="translate(-191.56 -232.76)" style="fill: #a11452"/>
            <path d="M263.17,304.84v5.87a16.31,16.31,0,0,1-2.63,1.94l0-5.87a16.2,16.2,0,0,0,2.62-1.94" transform="translate(-191.56 -232.76)" style="fill: #a61555"/>
            <path d="M260.55,306.78l0,5.87-.35.2a16.7,16.7,0,0,1-3.38,1.52l0-5.87A17.49,17.49,0,0,0,260.2,307l.35-.21" transform="translate(-191.56 -232.76)" style="fill: #ab1657"/>
            <path d="M256.82,308.5l0,5.87a16.22,16.22,0,0,1-2.08.52l0-5.87a16.64,16.64,0,0,0,2.08-.52" transform="translate(-191.56 -232.76)" style="fill: #a61555"/>
            <path d="M254.74,309l0,5.87c-.42.08-.85.13-1.29.18l0-5.87q.65-.06,1.29-.18" transform="translate(-191.56 -232.76)" style="fill: #a11452"/>
            <path d="M253.45,309.2l0,5.87c-.36,0-.72.06-1.08.07v-5.87c.37,0,.73,0,1.09-.07" transform="translate(-191.56 -232.76)" style="fill: #9c1450"/>
            <path d="M252.36,309.27v5.87h-1l0-5.86h1" transform="translate(-191.56 -232.76)" style="fill: #98134d"/>
            <path d="M251.34,309.28l0,5.86h-.24l-.79-.05,0-5.87.78,0h.25" transform="translate(-191.56 -232.76)" style="fill: #93134b"/>
            <path d="M250.31,309.22l0,5.87c-.35,0-.71-.07-1.06-.12V309.1c.36,0,.71.09,1.07.12" transform="translate(-191.56 -232.76)" style="fill: #8e1249"/>
            <path d="M249.24,309.1V315c-.39-.06-.78-.12-1.17-.2V308.9c.39.08.78.15,1.17.2" transform="translate(-191.56 -232.76)" style="fill: #891146"/>
            <path d="M248.07,308.9v5.87c-.47-.1-.94-.22-1.41-.35l0-5.87c.47.14.93.25,1.4.35" transform="translate(-191.56 -232.76)" style="fill: #851144"/>
            <path d="M246.67,308.55l0,5.87c-.65-.18-1.3-.41-2-.66v-5.87a19.64,19.64,0,0,0,2,.66" transform="translate(-191.56 -232.76)" style="fill: #801041"/>
            <path d="M244.71,307.89v5.87a25.44,25.44,0,0,1-3.33-1.62,11.71,11.71,0,0,1-4.26-3.73,4.5,4.5,0,0,1-.69-2.31l0-5.86a4.4,4.4,0,0,0,.69,2.3,11.73,11.73,0,0,0,4.26,3.74,27.26,27.26,0,0,0,3.32,1.61" transform="translate(-191.56 -232.76)" style="fill: #7b103f"/>
          </g>
        </g>
      </g>
      <path d="M247.51,292.6l2,2.73c-1.07.22-2.11.47-3.11.75a11.28,11.28,0,0,0-2.56,1c-1.56.91-2.17,1.95-1.85,3.13s1.54,2.37,3.64,3.58q6.56,3.8,11.46.94a14.57,14.57,0,0,0,3.93-3.48l3.49,2a13.58,13.58,0,0,1-4.35,3.7,16.63,16.63,0,0,1-9.11,2.28,21.09,21.09,0,0,1-9.7-3,11.73,11.73,0,0,1-4.26-3.74,4.07,4.07,0,0,1-.35-3.89,8.32,8.32,0,0,1,3.64-3.53A23.39,23.39,0,0,1,247.51,292.6Z" transform="translate(-191.56 -232.76)" style="fill: #cc1a68"/>
    </g>
  </g>
</svg>
