<svg id="Layer_1" data-name="Layer 1" xmlns="http://www.w3.org/2000/svg" viewBox="0 0 423.01 184">
  <title>dicipline</title>
  <path d="M238.24,182.21a7.25,7.25,0,1,1-2.72-5.65A7.23,7.23,0,0,1,238.24,182.21Z" transform="translate(-37.33 -158.25)" style="fill: #e67300;stroke: #000;stroke-miterlimit: 10"/>
  <path d="M420.24,182.21,242.87,202.45A23.32,23.32,0,0,1,231,205.68v-4.47a19,19,0,0,0,0-38v-4.46A23.32,23.32,0,0,1,242.87,162Z" transform="translate(-37.33 -158.25)" style="fill: red;stroke: #000;stroke-miterlimit: 10"/>
  <text transform="translate(390.21 35.26)" style="font-size: 27.62710952758789px;font-family: Arvo-BoldItalic, Arvo;font-weight: 700;font-style: italic">N</text>
  <path d="M212,182.21a19,19,0,0,0,19,19v4.47a23.25,23.25,0,0,1-11.9-3.25v0l-27.76-3.17L41.74,182.21l147.19-16.79L219.1,162v0a23.25,23.25,0,0,1,11.9-3.25v4.46a19,19,0,0,0-19,19Z" transform="translate(-37.33 -158.25)" style="fill: #0054ff;stroke: #000;stroke-miterlimit: 10"/>
  <polygon points="45.2 183 3.33 158.83 3.33 110.48 45.2 134.65 45.2 183" style="fill: none;stroke: #000;stroke-linecap: round;stroke-linejoin: round;stroke-width: 2px"/>
  <polygon points="156.85 183 114.98 158.83 114.98 110.48 156.85 134.65 156.85 183" style="fill: none;stroke: #000;stroke-linecap: round;stroke-linejoin: round;stroke-width: 2px"/>
  <polygon points="156.85 183 198.72 158.83 198.72 110.48 156.85 134.65 156.85 183" style="fill: none;stroke: #000;stroke-linecap: round;stroke-linejoin: round;stroke-width: 2px"/>
  <polygon points="268.5 183 226.63 158.83 226.63 110.48 268.5 134.65 268.5 183" style="fill: none;stroke: #000;stroke-linecap: round;stroke-linejoin: round;stroke-width: 2px"/>
  <polygon points="268.5 183 310.36 158.83 310.36 110.48 268.5 134.65 268.5 183" style="fill: none;stroke: #000;stroke-linecap: round;stroke-linejoin: round;stroke-width: 2px"/>
  <polygon points="226.63 110.48 268.5 86.3 310.36 110.48 268.5 134.65 226.63 110.48" style="fill: none;stroke: #000;stroke-linecap: round;stroke-linejoin: round;stroke-width: 2px"/>
  <polygon points="380.14 183 338.28 158.83 338.28 110.48 380.14 134.65 380.14 183" style="fill: #00802b;stroke: #000;stroke-miterlimit: 10"/>
  <polygon points="380.14 183 422.01 158.83 422.01 110.48 380.14 134.65 380.14 183" style="fill: #00bf40;stroke: #000;stroke-miterlimit: 10"/>
  <polygon points="338.28 110.48 380.14 86.3 422.01 110.48 380.14 134.65 338.28 110.48" style="fill: #00e64d;stroke: #000;stroke-miterlimit: 10"/>
</svg>
