<svg id="Layer_1" data-name="Layer 1" xmlns="http://www.w3.org/2000/svg" viewBox="0 0 437.28 482.91">
  <title>formats</title>
  <path d="M151.36,62.27v38.06c-1.4,2.21-31.55,13.62-55.49,1s-29.69,50.37-29.69,50.37H62a11.35,11.35,0,0,1-11.35-11.35V121c.4-1.47,13.12-48.65,35.29-54.72,22.52-6.16,27.5-15.38,27.5-15.38H140A11.35,11.35,0,0,1,151.36,62.27Z" transform="translate(-49 -49.92)" style="fill: #f7931e;stroke: #000;stroke-miterlimit: 10;stroke-width: 2px"/>
  <path d="M188.79,164.69s-2.13,15.16-7.35,8.29-8.3,8.28-8.3,8.28H113.41s5.69-7.81,0-9.94,3.79-6.63,3.79-6.63Z" transform="translate(-49 -49.92)" style="fill: #ed1e79;stroke: #000;stroke-miterlimit: 10;stroke-width: 2px"/>
  <rect x="31.89" y="144.37" width="105.54" height="16.57" rx="6.09" style="fill: #29abe2;stroke: #000;stroke-miterlimit: 10;stroke-width: 2px"/>
  <circle cx="9.29" cy="152.65" r="8.29" style="fill: #29abe2;stroke: #000;stroke-miterlimit: 10;stroke-width: 2px"/>
  <rect x="31.89" y="173.97" width="105.54" height="16.57" rx="6.09" style="fill: #f7931e;stroke: #000;stroke-miterlimit: 10;stroke-width: 2px"/>
  <circle cx="9.29" cy="182.25" r="8.29" style="fill: #f7931e;stroke: #000;stroke-miterlimit: 10;stroke-width: 2px"/>
  <rect x="31.89" y="203.57" width="105.54" height="16.57" rx="6.09" style="fill: #ed1e79;stroke: #000;stroke-miterlimit: 10;stroke-width: 2px"/>
  <circle cx="9.29" cy="211.85" r="8.29" style="fill: #ed1e79;stroke: #000;stroke-miterlimit: 10;stroke-width: 2px"/>
  <path d="M113.41,50.92s-5,9.22-27.5,15.38C63.74,72.37,51,119.55,50.62,121V62.27A11.35,11.35,0,0,1,62,50.92Z" transform="translate(-49 -49.92)" style="fill: #29abe2;stroke: #000;stroke-miterlimit: 10;stroke-width: 2px"/>
  <path d="M151.36,100.33v40A11.35,11.35,0,0,1,140,151.66H66.18s5.75-63,29.69-50.37S150,102.54,151.36,100.33Z" transform="translate(-49 -49.92)" style="fill: #ed1e79;stroke: #000;stroke-miterlimit: 10;stroke-width: 2px"/>
  <path d="M113.41,181.26H58.68a8.07,8.07,0,0,1-8.06-8.06v-.45a8.07,8.07,0,0,1,8.06-8.06H117.2s-9.48,4.49-3.79,6.63S113.41,181.26,113.41,181.26Z" transform="translate(-49 -49.92)" style="fill: #29abe2;stroke: #000;stroke-miterlimit: 10;stroke-width: 2px"/>
  <path d="M235.28,172.75v.45a8.08,8.08,0,0,1-8.06,8.06H173.14s3.09-15.16,8.3-8.28,7.35-8.29,7.35-8.29h38.43A8.08,8.08,0,0,1,235.28,172.75Z" transform="translate(-49 -49.92)" style="fill: #f7931e;stroke: #000;stroke-miterlimit: 10;stroke-width: 2px"/>
  <path d="M401.36,62.27v38.06c-1.4,2.21-40.09-14.23-44.83,12.43-3.22,18.11-40.35,38.9-40.35,38.9H312a11.35,11.35,0,0,1-11.35-11.35V121c.4-1.47-1.32-52.3,20.85-58.37,22.52-6.16,41.94-11.73,41.94-11.73H390A11.35,11.35,0,0,1,401.36,62.27Z" transform="translate(-49 -49.92)" style="fill: #22b573;stroke: #000;stroke-miterlimit: 10;stroke-width: 2px"/>
  <path d="M438.79,164.69s9.22-.06,5.5,7.72c-2.58,5.41-21.15,8.85-21.15,8.85H363.41s-8-6.66-3.12-10.26a40.31,40.31,0,0,0,6.91-6.31Z" transform="translate(-49 -49.92)" style="fill: #22b573;stroke: #000;stroke-miterlimit: 10;stroke-width: 2px"/>
  <rect x="281.89" y="144.37" width="105.54" height="16.57" rx="6.09" style="fill: #fcee21;stroke: #000;stroke-miterlimit: 10;stroke-width: 2px"/>
  <circle cx="259.29" cy="152.65" r="8.29" style="fill: #fcee21;stroke: #000;stroke-miterlimit: 10;stroke-width: 2px"/>
  <rect x="281.89" y="173.97" width="105.54" height="16.57" rx="6.09" style="fill: #22b573;stroke: #000;stroke-miterlimit: 10;stroke-width: 2px"/>
  <circle cx="259.29" cy="182.25" r="8.29" style="fill: #22b573;stroke: #000;stroke-miterlimit: 10;stroke-width: 2px"/>
  <rect x="281.89" y="203.57" width="105.54" height="16.57" rx="6.09" style="fill: #662d91;stroke: #000;stroke-miterlimit: 10;stroke-width: 2px"/>
  <circle cx="259.29" cy="211.85" r="8.29" style="fill: #662d91;stroke: #000;stroke-miterlimit: 10;stroke-width: 2px"/>
  <path d="M363.41,50.92s-39.29,5.72-36.53,28.9c3.06,25.65-25.86,39.73-26.26,41.2V62.27A11.35,11.35,0,0,1,312,50.92Z" transform="translate(-49 -49.92)" style="fill: #fcee21;stroke: #000;stroke-miterlimit: 10;stroke-width: 2px"/>
  <path d="M401.36,100.33v40A11.35,11.35,0,0,1,390,151.66H316.18s36.11-30.6,34.81-53.48C349.45,71.14,400,102.54,401.36,100.33Z" transform="translate(-49 -49.92)" style="fill: #662d91;stroke: #000;stroke-miterlimit: 10;stroke-width: 2px"/>
  <path d="M363.41,181.26H308.68a8.07,8.07,0,0,1-8.06-8.06v-.45a8.07,8.07,0,0,1,8.06-8.06H367.2s1.22,3.2-3.79,6.63C356.65,175.94,363.41,181.26,363.41,181.26Z" transform="translate(-49 -49.92)" style="fill: #fcee21;stroke: #000;stroke-miterlimit: 10;stroke-width: 2px"/>
  <path d="M485.28,172.75v.45a8.08,8.08,0,0,1-8.06,8.06H423.14s8.89.32,8.3-8.28c-.56-8.29,7.35-8.29,7.35-8.29h38.43A8.08,8.08,0,0,1,485.28,172.75Z" transform="translate(-49 -49.92)" style="fill: #662d91;stroke: #000;stroke-miterlimit: 10;stroke-width: 2px"/>
  <path d="M151.78,324V362.1c-1.4,2.21-6.37,33.38-30.31,20.73s-54.87,30.6-54.87,30.6H62.38A11.35,11.35,0,0,1,51,402.07V382.83a.1.1,0,0,1,0,0c.4-1.48,11.34-33.42,19.08-47.78,11.08-20.55,43.7-22.32,43.7-22.32h26.6A11.35,11.35,0,0,1,151.78,324Z" transform="translate(-49 -49.92)" style="fill: #f71e1e;stroke: #000;stroke-miterlimit: 10;stroke-width: 2px"/>
  <path d="M189.21,426.45s5.06,17.46-.15,10.59-15.5,6-15.5,6H113.82s-2.9-7.77-8.58-9.9,12.38-6.68,12.38-6.68Z" transform="translate(-49 -49.92)" style="fill: #f71e1e;stroke: #000;stroke-miterlimit: 10;stroke-width: 2px"/>
  <rect x="32.3" y="406.14" width="105.54" height="16.57" rx="6.09" style="fill: #00bf00;stroke: #000;stroke-miterlimit: 10;stroke-width: 2px"/>
  <circle cx="9.7" cy="414.42" r="8.29" style="fill: #00bf00;stroke: #000;stroke-miterlimit: 10;stroke-width: 2px"/>
  <rect x="32.3" y="435.74" width="105.54" height="16.57" rx="6.09" style="fill: #f71e1e;stroke: #000;stroke-miterlimit: 10;stroke-width: 2px"/>
  <circle cx="9.7" cy="444.02" r="8.29" style="fill: #f71e1e;stroke: #000;stroke-miterlimit: 10;stroke-width: 2px"/>
  <rect x="32.3" y="465.34" width="105.54" height="16.57" rx="6.09" style="fill: #104880;stroke: #000;stroke-miterlimit: 10;stroke-width: 2px"/>
  <circle cx="9.7" cy="473.62" r="8.29" style="fill: #104880;stroke: #000;stroke-miterlimit: 10;stroke-width: 2px"/>
  <path d="M113.82,312.69,74.35,348.78c27.06,21.7-22.91,32.53-23.31,34a.1.1,0,0,0,0,0V324a11.34,11.34,0,0,1,11.35-11.35Z" transform="translate(-49 -49.92)" style="fill: #00bf00;stroke: #000;stroke-miterlimit: 10;stroke-width: 2px"/>
  <path d="M151.78,362.1v40a11.36,11.36,0,0,1-11.36,11.36H66.6l29.68-50.37C48.24,326.19,150.38,364.31,151.78,362.1Z" transform="translate(-49 -49.92)" style="fill: #104880;stroke: #000;stroke-miterlimit: 10;stroke-width: 2px"/>
  <path d="M113.82,443H59.09A8.09,8.09,0,0,1,51,435v-.46a8.09,8.09,0,0,1,8.06-8.06h58.53s7,8.29-3.8,6.63Z" transform="translate(-49 -49.92)" style="fill: #00bf00;stroke: #000;stroke-miterlimit: 10;stroke-width: 2px"/>
  <path d="M235.69,434.51V435a8.08,8.08,0,0,1-8.06,8.06H173.56s-.74-15.46,8.3-8.29c.24.19,7.35-8.29,7.35-8.29h38.42A8.08,8.08,0,0,1,235.69,434.51Z" transform="translate(-49 -49.92)" style="fill: #104880;stroke: #000;stroke-miterlimit: 10;stroke-width: 2px"/>
</svg>
