<svg id="Layer_1" data-name="Layer 1" xmlns="http://www.w3.org/2000/svg" viewBox="0 0 454.22 403.05">
  <title>goals</title>
  <line x1="378.2" y1="217.31" x2="378.2" y2="42.34" style="fill: none;stroke: #bf7216;stroke-miterlimit: 10;stroke-width: 10px"/>
  <line x1="78.07" y1="217.31" x2="78.07" y2="320.5" style="fill: none;stroke: #bf272d;stroke-miterlimit: 10;stroke-width: 10px"/>
  <line x1="278.15" y1="217.31" x2="278.15" y2="286.11" style="fill: none;stroke: #bf481c;stroke-miterlimit: 10;stroke-width: 10px"/>
  <line x1="178.11" y1="150.37" x2="178.11" y2="219.16" style="fill: none;stroke: #3093bf;stroke-miterlimit: 10;stroke-width: 10px"/>
  <polygon points="152.49 217.31 103.16 233.56 3.12 233.56 52.44 217.31 3.12 201.06 103.16 201.06 152.49 217.31" style="fill: #c1272d;stroke: #000;stroke-miterlimit: 10"/>
  <polygon points="352.57 217.31 303.25 233.56 203.21 233.56 252.53 217.31 203.21 201.06 303.25 201.06 352.57 217.31" style="fill: #f15a24;stroke: #000;stroke-miterlimit: 10"/>
  <polygon points="252.53 217.31 203.21 233.56 103.16 233.56 152.49 217.31 103.16 201.06 203.21 201.06 252.53 217.31" style="fill: #40c4ff;stroke: #000;stroke-miterlimit: 10"/>
  <polygon points="452.62 217.31 417.77 228.78 403.29 233.56 303.25 233.56 352.57 217.31 303.25 201.06 403.29 201.06 417.77 205.84 452.62 217.31" style="fill: #f7931e;stroke: #000;stroke-miterlimit: 10"/>
  <g>
    <path d="M275.53,149.56V214a12,12,0,0,1-12,12h-40a12,12,0,0,1-12-12V149.56a12,12,0,0,1,12-12h5.18v7.06h29.65v-7.06h5.17A12,12,0,0,1,275.53,149.56Z" transform="translate(-65.69 -49.26)" style="fill: #40c4ff;stroke: #000;stroke-miterlimit: 10;stroke-width: 0.5px"/>
    <path d="M272.13,153V210.6a10.76,10.76,0,0,1-10.73,10.73H225.66a10.75,10.75,0,0,1-10.72-10.73V153a10.75,10.75,0,0,1,10.72-10.72h3.05v2.35h29.65v-2.35h3A10.75,10.75,0,0,1,272.13,153Z" transform="translate(-65.69 -49.26)" style="fill: #fff;stroke: #000;stroke-miterlimit: 10;stroke-width: 0.5px"/>
    <path d="M254.33,130.5h-5.9a4.42,4.42,0,0,0,.15-1,1.21,1.21,0,0,0,0-.19,5.06,5.06,0,0,0-10.12,0,1.21,1.21,0,0,0,0,.19,4.42,4.42,0,0,0,.15,1h-5.89c-2.23,0-2.41,1.9-2.41,4.12v.18h26.94v-.18C257.27,132.4,256.55,130.5,254.33,130.5Zm-7.9-1a2.81,2.81,0,0,1-.27,1,2.9,2.9,0,0,1-5.26,0,2.81,2.81,0,0,1-.27-1,1.21,1.21,0,0,1,0-.19,2.91,2.91,0,0,1,5.82,0A1.21,1.21,0,0,1,246.43,129.46Z" transform="translate(-65.69 -49.26)" style="fill: #b3b3b3;stroke: #000;stroke-miterlimit: 10;stroke-width: 0.5px"/>
    <path d="M258.36,137.46v7.16H228.71v-7.16a2.75,2.75,0,0,1,2.75-2.75h24.16A2.74,2.74,0,0,1,258.36,137.46Z" transform="translate(-65.69 -49.26)" style="fill: #ccc;stroke: #000;stroke-miterlimit: 10;stroke-width: 0.5px"/>
    <rect x="156.95" y="102.48" width="9.24" height="9.24" style="fill: #fff;stroke: #000;stroke-miterlimit: 10;stroke-width: 0.9609411796551136px"/>
    <rect x="156.95" y="126.43" width="9.24" height="9.24" style="fill: #fff;stroke: #000;stroke-miterlimit: 10;stroke-width: 0.9609411796551136px"/>
    <rect x="156.95" y="150.37" width="9.24" height="9.24" style="fill: #fff;stroke: #000;stroke-miterlimit: 10;stroke-width: 0.9609411796551136px"/>
    <path d="M224.42,155.81a3.42,3.42,0,0,1,3.31,2.79,13,13,0,0,1,8.52-12.1" transform="translate(-65.69 -49.26)" style="fill: none;stroke: #22b573;stroke-linecap: round;stroke-linejoin: round;stroke-width: 2px"/>
    <path d="M224.42,178.94a3.42,3.42,0,0,1,3.31,2.79,13,13,0,0,1,8.52-12.1" transform="translate(-65.69 -49.26)" style="fill: none;stroke: #22b573;stroke-linecap: round;stroke-linejoin: round;stroke-width: 2px"/>
    <path d="M224.42,202.88a3.43,3.43,0,0,1,3.31,2.79,13,13,0,0,1,8.52-12.1" transform="translate(-65.69 -49.26)" style="fill: none;stroke: #22b573;stroke-linecap: round;stroke-linejoin: round;stroke-width: 2px"/>
    <line x1="156.95" y1="117.04" x2="197.37" y2="117.04" style="fill: none;stroke: gray;stroke-miterlimit: 10;stroke-width: 0.95613694190979px"/>
    <line x1="156.95" y1="139.99" x2="197.37" y2="139.99" style="fill: none;stroke: gray;stroke-miterlimit: 10;stroke-width: 0.95613694190979px"/>
    <line x1="156.95" y1="165.07" x2="197.37" y2="165.07" style="fill: none;stroke: gray;stroke-miterlimit: 10;stroke-width: 0.95613694190979px"/>
  </g>
  <g>
    <path d="M175.76,375.58v64.47a12,12,0,0,1-12,12h-40a12,12,0,0,1-12-12V375.58a12,12,0,0,1,12-12h5.18v7.06h29.65v-7.06h5.17A12,12,0,0,1,175.76,375.58Z" transform="translate(-65.69 -49.26)" style="fill: #c1272d;stroke: #000;stroke-miterlimit: 10;stroke-width: 0.5px"/>
    <path d="M172.36,379v57.61a10.76,10.76,0,0,1-10.73,10.73H125.89a10.75,10.75,0,0,1-10.72-10.73V379a10.75,10.75,0,0,1,10.72-10.72h3v2.35h29.65v-2.35h3A10.75,10.75,0,0,1,172.36,379Z" transform="translate(-65.69 -49.26)" style="fill: #fff;stroke: #000;stroke-miterlimit: 10;stroke-width: 0.5px"/>
    <path d="M154.56,356.52h-5.9a4.42,4.42,0,0,0,.15-1,1.21,1.21,0,0,0,0-.19,5.06,5.06,0,1,0-10.12,0,1.21,1.21,0,0,0,0,.19,4.42,4.42,0,0,0,.15,1H133c-2.23,0-2.41,1.9-2.41,4.12v.18H157.5v-.18C157.5,358.42,156.78,356.52,154.56,356.52Zm-7.9-1a2.81,2.81,0,0,1-.27,1,2.9,2.9,0,0,1-5.26,0,2.81,2.81,0,0,1-.27-1,1.21,1.21,0,0,1,0-.19,2.91,2.91,0,0,1,5.82,0A1.21,1.21,0,0,1,146.66,355.48Z" transform="translate(-65.69 -49.26)" style="fill: #b3b3b3;stroke: #000;stroke-miterlimit: 10;stroke-width: 0.5px"/>
    <path d="M158.59,363.48v7.16H128.94v-7.16a2.75,2.75,0,0,1,2.75-2.75h24.16A2.75,2.75,0,0,1,158.59,363.48Z" transform="translate(-65.69 -49.26)" style="fill: #ccc;stroke: #000;stroke-miterlimit: 10;stroke-width: 0.5px"/>
    <rect x="57.18" y="328.51" width="9.24" height="9.24" style="fill: #fff;stroke: #000;stroke-miterlimit: 10;stroke-width: 0.9609411796551136px"/>
    <rect x="57.18" y="352.45" width="9.24" height="9.24" style="fill: #fff;stroke: #000;stroke-miterlimit: 10;stroke-width: 0.9609411796551136px"/>
    <rect x="57.18" y="376.39" width="9.24" height="9.24" style="fill: #fff;stroke: #000;stroke-miterlimit: 10;stroke-width: 0.9609411796551136px"/>
    <path d="M124.64,381.83a3.43,3.43,0,0,1,3.32,2.79,13,13,0,0,1,8.51-12.1" transform="translate(-65.69 -49.26)" style="fill: none;stroke: #22b573;stroke-linecap: round;stroke-linejoin: round;stroke-width: 2px"/>
    <path d="M124.64,405a3.43,3.43,0,0,1,3.32,2.79,13,13,0,0,1,8.51-12.1" transform="translate(-65.69 -49.26)" style="fill: none;stroke: #22b573;stroke-linecap: round;stroke-linejoin: round;stroke-width: 2px"/>
    <path d="M124.64,428.9a3.43,3.43,0,0,1,3.32,2.79,12.93,12.93,0,0,1,8.51-12.09" transform="translate(-65.69 -49.26)" style="fill: none;stroke: #22b573;stroke-linecap: round;stroke-linejoin: round;stroke-width: 2px"/>
    <line x1="57.18" y1="343.07" x2="97.6" y2="343.07" style="fill: none;stroke: gray;stroke-miterlimit: 10;stroke-width: 0.95613694190979px"/>
    <line x1="57.18" y1="366.01" x2="97.6" y2="366.01" style="fill: none;stroke: gray;stroke-miterlimit: 10;stroke-width: 0.95613694190979px"/>
    <line x1="57.18" y1="391.09" x2="97.6" y2="391.09" style="fill: none;stroke: gray;stroke-miterlimit: 10;stroke-width: 0.95613694190979px"/>
  </g>
  <g>
    <path d="M475.63,74.86v64.47a12,12,0,0,1-12,12h-40a12,12,0,0,1-12-12V74.86a12,12,0,0,1,12-12h5.17v7.06h29.66V62.86h5.17A12,12,0,0,1,475.63,74.86Z" transform="translate(-65.69 -49.26)" style="fill: #f7931e;stroke: #000;stroke-miterlimit: 10;stroke-width: 0.5px"/>
    <path d="M472.22,78.29V135.9a10.76,10.76,0,0,1-10.73,10.73H425.76A10.76,10.76,0,0,1,415,135.9V78.29a10.75,10.75,0,0,1,10.73-10.72h3v2.35h29.66V67.57h3A10.75,10.75,0,0,1,472.22,78.29Z" transform="translate(-65.69 -49.26)" style="fill: #fff;stroke: #000;stroke-miterlimit: 10;stroke-width: 0.5px"/>
    <path d="M454.42,55.8h-5.89a5,5,0,0,0,.14-1,1.21,1.21,0,0,0,0-.19,5.06,5.06,0,1,0-10.11,0,1.21,1.21,0,0,0,0,.19,5,5,0,0,0,.14,1h-5.88c-2.24,0-2.42,1.9-2.42,4.12v.18h26.94v-.18C457.36,57.7,456.65,55.8,454.42,55.8Zm-7.89-1a3,3,0,0,1-.27,1,2.91,2.91,0,0,1-5.27,0,2.81,2.81,0,0,1-.27-1,1.21,1.21,0,0,1,0-.19,2.91,2.91,0,1,1,5.82,0Z" transform="translate(-65.69 -49.26)" style="fill: #b3b3b3;stroke: #000;stroke-miterlimit: 10;stroke-width: 0.5px"/>
    <path d="M458.46,62.75v7.17H428.8V62.75A2.74,2.74,0,0,1,431.55,60h24.16A2.74,2.74,0,0,1,458.46,62.75Z" transform="translate(-65.69 -49.26)" style="fill: #ccc;stroke: #000;stroke-miterlimit: 10;stroke-width: 0.5px"/>
    <rect x="357.04" y="27.78" width="9.24" height="9.24" style="fill: #fff;stroke: #000;stroke-miterlimit: 10;stroke-width: 0.9609411796551136px"/>
    <rect x="357.04" y="51.72" width="9.24" height="9.24" style="fill: #fff;stroke: #000;stroke-miterlimit: 10;stroke-width: 0.9609411796551136px"/>
    <rect x="357.04" y="75.66" width="9.24" height="9.24" style="fill: #fff;stroke: #000;stroke-miterlimit: 10;stroke-width: 0.9609411796551136px"/>
    <path d="M424.51,81.1a3.43,3.43,0,0,1,3.31,2.79,12.92,12.92,0,0,1,8.52-12.09" transform="translate(-65.69 -49.26)" style="fill: none;stroke: #22b573;stroke-linecap: round;stroke-linejoin: round;stroke-width: 2px"/>
    <path d="M424.51,104.23a3.43,3.43,0,0,1,3.31,2.79,12.92,12.92,0,0,1,8.52-12.09" transform="translate(-65.69 -49.26)" style="fill: none;stroke: #22b573;stroke-linecap: round;stroke-linejoin: round;stroke-width: 2px"/>
    <path d="M424.51,128.17a3.43,3.43,0,0,1,3.31,2.79,12.92,12.92,0,0,1,8.52-12.09" transform="translate(-65.69 -49.26)" style="fill: none;stroke: #22b573;stroke-linecap: round;stroke-linejoin: round;stroke-width: 2px"/>
    <line x1="357.04" y1="42.34" x2="397.46" y2="42.34" style="fill: none;stroke: gray;stroke-miterlimit: 10;stroke-width: 0.95613694190979px"/>
    <line x1="357.04" y1="65.28" x2="397.46" y2="65.28" style="fill: none;stroke: gray;stroke-miterlimit: 10;stroke-width: 0.95613694190979px"/>
    <line x1="357.04" y1="90.37" x2="397.46" y2="90.37" style="fill: none;stroke: gray;stroke-miterlimit: 10;stroke-width: 0.95613694190979px"/>
  </g>
  <g>
    <path d="M375.58,332.37v64.47a12,12,0,0,1-12,12h-40a12,12,0,0,1-12-12V332.37a12,12,0,0,1,12-12h5.18v7.06h29.65v-7.06h5.17A12,12,0,0,1,375.58,332.37Z" transform="translate(-65.69 -49.26)" style="fill: #f15a24;stroke: #000;stroke-miterlimit: 10;stroke-width: 0.5px"/>
    <path d="M372.18,335.8v57.61a10.76,10.76,0,0,1-10.73,10.73H325.71A10.75,10.75,0,0,1,315,393.41V335.8a10.75,10.75,0,0,1,10.72-10.72h3.05v2.35h29.65v-2.35h3A10.75,10.75,0,0,1,372.18,335.8Z" transform="translate(-65.69 -49.26)" style="fill: #fff;stroke: #000;stroke-miterlimit: 10;stroke-width: 0.5px"/>
    <path d="M354.38,313.31h-5.9a4.42,4.42,0,0,0,.15-1,1.21,1.21,0,0,0,0-.19,5.06,5.06,0,0,0-10.12,0,1.21,1.21,0,0,0,0,.19,4.42,4.42,0,0,0,.15,1h-5.89c-2.23,0-2.41,1.9-2.41,4.12v.18h26.94v-.18C357.32,315.21,356.6,313.31,354.38,313.31Zm-7.9-1a2.81,2.81,0,0,1-.27,1,2.9,2.9,0,0,1-5.26,0,2.81,2.81,0,0,1-.27-1,1.21,1.21,0,0,1,0-.19,2.91,2.91,0,0,1,5.82,0A1.21,1.21,0,0,1,346.48,312.27Z" transform="translate(-65.69 -49.26)" style="fill: #b3b3b3;stroke: #000;stroke-miterlimit: 10;stroke-width: 0.5px"/>
    <path d="M358.41,320.27v7.16H328.76v-7.16a2.75,2.75,0,0,1,2.74-2.75h24.17A2.75,2.75,0,0,1,358.41,320.27Z" transform="translate(-65.69 -49.26)" style="fill: #ccc;stroke: #000;stroke-miterlimit: 10;stroke-width: 0.5px"/>
    <rect x="256.99" y="285.3" width="9.24" height="9.24" style="fill: #fff;stroke: #000;stroke-miterlimit: 10;stroke-width: 0.9609411796551136px"/>
    <rect x="256.99" y="309.24" width="9.24" height="9.24" style="fill: #fff;stroke: #000;stroke-miterlimit: 10;stroke-width: 0.9609411796551136px"/>
    <rect x="256.99" y="333.18" width="9.24" height="9.24" style="fill: #fff;stroke: #000;stroke-miterlimit: 10;stroke-width: 0.9609411796551136px"/>
    <path d="M324.46,338.62a3.41,3.41,0,0,1,3.31,2.79,13,13,0,0,1,8.52-12.1" transform="translate(-65.69 -49.26)" style="fill: none;stroke: #22b573;stroke-linecap: round;stroke-linejoin: round;stroke-width: 2px"/>
    <path d="M324.46,361.75a3.41,3.41,0,0,1,3.31,2.79,13,13,0,0,1,8.52-12.1" transform="translate(-65.69 -49.26)" style="fill: none;stroke: #22b573;stroke-linecap: round;stroke-linejoin: round;stroke-width: 2px"/>
    <path d="M324.46,385.69a3.41,3.41,0,0,1,3.31,2.79,13,13,0,0,1,8.52-12.1" transform="translate(-65.69 -49.26)" style="fill: none;stroke: #22b573;stroke-linecap: round;stroke-linejoin: round;stroke-width: 2px"/>
    <line x1="256.99" y1="299.86" x2="297.42" y2="299.86" style="fill: none;stroke: gray;stroke-miterlimit: 10;stroke-width: 0.95613694190979px"/>
    <line x1="256.99" y1="322.8" x2="297.42" y2="322.8" style="fill: none;stroke: gray;stroke-miterlimit: 10;stroke-width: 0.95613694190979px"/>
    <line x1="256.99" y1="347.88" x2="297.42" y2="347.88" style="fill: none;stroke: gray;stroke-miterlimit: 10;stroke-width: 0.95613694190979px"/>
  </g>
</svg>
