<svg id="Layer_1" data-name="Layer 1" xmlns="http://www.w3.org/2000/svg" viewBox="0 0 475.64 425.85">
  <title>inner</title>
  <path d="M212.44,153.42c-1.11-.82-2.27-1.62-3.48-2.38C210.17,151.8,211.33,152.59,212.44,153.42Z" transform="translate(1.5 -39.53)" style="fill: none;stroke: #000;stroke-miterlimit: 10;stroke-width: 3px"/>
  <path d="M194,303.41h.64l-.64.42Z" transform="translate(1.5 -39.53)" style="fill: none;stroke: #000;stroke-miterlimit: 10;stroke-width: 3px"/>
  <path d="M189.08,297.11l-.51.33v-.32Z" transform="translate(1.5 -39.53)" style="fill: none;stroke: #000;stroke-miterlimit: 10;stroke-width: 3px"/>
  <path d="M201.2,310.91l-.78.51v-.5Z" transform="translate(1.5 -39.53)" style="fill: none;stroke: #000;stroke-miterlimit: 10;stroke-width: 3px"/>
  <path d="M201.2,310.91l-.78.51v-.5Z" transform="translate(1.5 -39.53)" style="fill: none;stroke: #000;stroke-miterlimit: 10;stroke-width: 3px"/>
  <path d="M194,303.41h.64l-.64.42Z" transform="translate(1.5 -39.53)" style="fill: none;stroke: #000;stroke-miterlimit: 10;stroke-width: 3px"/>
  <path d="M189.08,297.11l-.51.33v-.32Z" transform="translate(1.5 -39.53)" style="fill: none;stroke: #000;stroke-miterlimit: 10;stroke-width: 3px"/>
  <path d="M239.56,254.23l-.07-.11,0,0Z" transform="translate(1.5 -39.53)" style="fill: none;stroke: #000;stroke-miterlimit: 10;stroke-width: 3px"/>
  <path d="M201.2,310.91l-.78.51v-.5Z" transform="translate(1.5 -39.53)" style="fill: none;stroke: #000;stroke-miterlimit: 10;stroke-width: 3px"/>
  <path d="M194,303.41h.64l-.64.42Z" transform="translate(1.5 -39.53)" style="fill: none;stroke: #000;stroke-miterlimit: 10;stroke-width: 3px"/>
  <path d="M189.08,297.11l-.51.33v-.32Z" transform="translate(1.5 -39.53)" style="fill: none;stroke: #000;stroke-miterlimit: 10;stroke-width: 3px"/>
  <path d="M239.56,254.23l-.07-.11,0,0Z" transform="translate(1.5 -39.53)" style="fill: none;stroke: #000;stroke-miterlimit: 10;stroke-width: 3px"/>
  <path d="M201.2,310.91l-.78.51v-.5Z" transform="translate(1.5 -39.53)" style="fill: none;stroke: #000;stroke-miterlimit: 10;stroke-width: 3px"/>
  <path d="M194,303.41h.64l-.64.42Z" transform="translate(1.5 -39.53)" style="fill: none;stroke: #000;stroke-miterlimit: 10;stroke-width: 3px"/>
  <path d="M189.08,297.11l-.51.33v-.32Z" transform="translate(1.5 -39.53)" style="fill: none;stroke: #000;stroke-miterlimit: 10;stroke-width: 3px"/>
  <path d="M239.56,254.23l-.07-.11,0,0Z" transform="translate(1.5 -39.53)" style="fill: none;stroke: #000;stroke-miterlimit: 10;stroke-width: 3px"/>
  <path d="M193.59,144.29c.33.08.67.18,1,.28s.87.26,1.3.4" transform="translate(1.5 -39.53)" style="fill: none;stroke: #000;stroke-miterlimit: 10;stroke-width: 3px"/>
  <path d="M215,155.45c-.41-.36-.84-.7-1.27-1" transform="translate(1.5 -39.53)" style="fill: none;stroke: #000;stroke-miterlimit: 10;stroke-width: 3px"/>
  <path d="M212.44,153.42c-1.11-.83-2.27-1.62-3.48-2.38-.6-.39-1.22-.76-1.85-1.12" transform="translate(1.5 -39.53)" style="fill: none;stroke: #000;stroke-miterlimit: 10;stroke-width: 3px"/>
  <path d="M204.2,148.35c-.33-.17-.67-.34-1-.49" transform="translate(1.5 -39.53)" style="fill: none;stroke: #000;stroke-miterlimit: 10;stroke-width: 3px"/>
  <path d="M215,155.45c.56.46,1.11.92,1.64,1.4" transform="translate(1.5 -39.53)" style="fill: none;stroke: #000;stroke-miterlimit: 10;stroke-width: 3px"/>
  <path d="M201.2,310.91l-.78.51v-.5Z" transform="translate(1.5 -39.53)" style="fill: none;stroke: #000;stroke-miterlimit: 10;stroke-width: 3px"/>
  <path d="M189.08,297.11l-.51.33v-.32Z" transform="translate(1.5 -39.53)" style="fill: none;stroke: #000;stroke-miterlimit: 10;stroke-width: 3px"/>
  <path d="M194.61,303.4l-.64.42v-.41Z" transform="translate(1.5 -39.53)" style="fill: none;stroke: #000;stroke-miterlimit: 10;stroke-width: 3px"/>
  <path d="M194.61,303.4l-.64.42v-.41Z" transform="translate(1.5 -39.53)" style="fill: none;stroke: #000;stroke-miterlimit: 10;stroke-width: 3px"/>
  <path d="M189.08,297.11l-.51.33v-.32Z" transform="translate(1.5 -39.53)" style="fill: none;stroke: #000;stroke-miterlimit: 10;stroke-width: 3px"/>
  <path d="M189.08,297.11l-.51.33v-.32Z" transform="translate(1.5 -39.53)" style="fill: none;stroke: #000;stroke-miterlimit: 10;stroke-width: 3px"/>
  <path d="M189.08,297.11l-.51.33v-.32Z" transform="translate(1.5 -39.53)" style="fill: none;stroke: #000;stroke-miterlimit: 10;stroke-width: 3px"/>
  <path d="M189.08,297.11l-.51.33v-.32Z" transform="translate(1.5 -39.53)" style="fill: none;stroke: #000;stroke-miterlimit: 10;stroke-width: 3px"/>
  <line x1="339.68" y1="59.33" x2="338.75" y2="59.8" style="fill: none;stroke: #000;stroke-miterlimit: 10;stroke-width: 3px"/>
  <polyline points="299.11 79.81 298.35 80.2 281.83 88.54" style="fill: none;stroke: #000;stroke-miterlimit: 10;stroke-width: 3px"/>
  <polyline points="294.35 281.32 306.89 292.17 307.47 292.66" style="fill: none;stroke: #000;stroke-miterlimit: 10;stroke-width: 3px"/>
  <line x1="332.82" y1="314.57" x2="332.19" y2="314.03" style="fill: none;stroke: #000;stroke-miterlimit: 10;stroke-width: 3px"/>
  <path d="M258.57,236l-18.39-26.49a10.35,10.35,0,0,1,3-14.69,3.94,3.94,0,0,0,.48-6.34c-7.47-6.41-13.78-19-24.65-29.49h0c-.38-.38-.77-.74-1.16-1.1s-.78-.71-1.18-1.07h0c-.54-.47-1.08-.94-1.64-1.4h0l-1.27-1c-.43-.33-.87-.67-1.32-1-1.11-.82-2.27-1.62-3.48-2.38-.61-.38-1.22-.75-1.85-1.12s-1.27-.72-1.92-1.06l-1-.51-1-.49q-.51-.26-1-.48c-1-.47-2.11-.92-3.21-1.34s-2-.74-3.08-1.07l-1.3-.4-1-.28c-1.49-.42-3-.79-4.65-1.1-.84-.16-1.69-.31-2.56-.45-.56-.09-1.12-.17-1.69-.24a92.92,92.92,0,0,0-23.31-2.15c-49.19,1.65-88.87,42-89.68,91.25a92.75,92.75,0,0,0,42.09,79.32v53.7h86.63v-53.7h.78c5.71-.07,36.08,1.77,43.65-3.27a248,248,0,0,0,.15-28.16c-.58-10-2.07-20-5.44-25.24h0l-.07-.11,0,0,16.42-8A6.85,6.85,0,0,0,258.57,236Zm-19.39,14.59-13.4,6.55c6.7,10.28,4.36,43.57,4.36,43.57-6.16,4.11-30.88,2.6-35.53,2.66l-.64.42v36.59H123.45v-37A75.61,75.61,0,0,1,181.17,166.3c29.66,3.87,37.4,28.34,48,37.46a3.21,3.21,0,0,1-.39,5.16,8.44,8.44,0,0,0-2.47,12l8.74,12.59h0l6.23,9A5.57,5.57,0,0,1,239.18,250.62Z" transform="translate(1.5 -39.53)" style="fill: red;stroke: #000;stroke-miterlimit: 10;stroke-width: 3px"/>
  <path d="M276.89,162a14.85,14.85,0,0,0-2.51,2,14.83,14.83,0,0,1,2.21-1.69,4.15,4.15,0,0,0,.43-.3l.27-.21,0,0a3.83,3.83,0,0,0,.29-.28A5.46,5.46,0,0,1,276.89,162Zm0,0a14.85,14.85,0,0,0-2.51,2,14.83,14.83,0,0,1,2.21-1.69,4.15,4.15,0,0,0,.43-.3l.27-.21,0,0a3.83,3.83,0,0,0,.29-.28A5.46,5.46,0,0,1,276.89,162Zm0,0a14.85,14.85,0,0,0-2.51,2,14.83,14.83,0,0,1,2.21-1.69,4.15,4.15,0,0,0,.43-.3l.27-.21,0,0a3.83,3.83,0,0,0,.29-.28A5.46,5.46,0,0,1,276.89,162Zm52.44,47.77-32.41-46.68a18.22,18.22,0,0,1,2.66-23.84,17.58,17.58,0,0,1,2.68-2.05,6.76,6.76,0,0,0,1.42-1.17h0a7,7,0,0,0-.58-10,62.79,62.79,0,0,1-6.26-6.27c-10.71-12.1-21.12-30.21-37.18-45.7h0c-.67-.67-1.36-1.3-2-1.94s-1.38-1.25-2.08-1.88h0c-.95-.83-1.9-1.66-2.89-2.47h0l-2.24-1.82c-.75-.58-1.53-1.18-2.32-1.76-2-1.44-4-2.85-6.13-4.19-1.08-.67-2.15-1.32-3.27-2s-2.23-1.26-3.38-1.86l-1.74-.9c-.58-.3-1.18-.58-1.78-.87s-1.2-.58-1.8-.84q-2.74-1.25-5.66-2.36c-1.76-.67-3.56-1.31-5.43-1.89-.75-.25-1.51-.47-2.29-.7-.56-.18-1.14-.34-1.74-.5q-3.94-1.11-8.2-1.94c-1.48-.28-3-.54-4.51-.79q-1.47-.24-3-.42a163.39,163.39,0,0,0-41.08-3.79C71.37,44,1.45,115.21,0,201.93A163.48,163.48,0,0,0,74.19,341.72V463.88H226.86V341.72l1.37,0c10.06-.12,63.58,3.12,76.92-5.76,0,0,.11-1.54.24-4.24a430.62,430.62,0,0,0,0-45.39c-1-17.53-3.65-35.21-9.59-44.48v0a2,2,0,0,1-.12-.19l.07,0,28.93-14.14A12.07,12.07,0,0,0,329.33,209.74Zm-34.17,25.71L271.55,247c8.11,12.44,8.7,44,8.28,62.59-.19,8.45-.6,14.19-.6,14.19-10.86,7.24-54.42,4.58-62.61,4.68l-1.13.74v92H91.22V328.48a133.09,133.09,0,0,1-60.4-113.8C32,144.08,88.92,86.14,159.48,83.78a133.25,133.25,0,0,1,33.45,3.08c39,5.09,56.53,30.44,70.69,49.64,4.8,6.51,9.21,12.31,13.95,16.37a5.66,5.66,0,0,1,.17,8.43l-.14.14a5.46,5.46,0,0,1-.71.53,14.85,14.85,0,0,0-2.51,2l0,0A14.86,14.86,0,0,0,272.53,183l15.4,22.19v0l11,15.81A9.8,9.8,0,0,1,295.16,235.45ZM276.89,162a14.85,14.85,0,0,0-2.51,2,14.83,14.83,0,0,1,2.21-1.69,4.15,4.15,0,0,0,.43-.3l.27-.21,0,0a3.83,3.83,0,0,0,.29-.28A5.46,5.46,0,0,1,276.89,162Zm0,0a14.85,14.85,0,0,0-2.51,2,14.83,14.83,0,0,1,2.21-1.69,4.15,4.15,0,0,0,.43-.3l.27-.21,0,0a3.83,3.83,0,0,0,.29-.28A5.46,5.46,0,0,1,276.89,162Zm0,0a14.85,14.85,0,0,0-2.51,2,14.83,14.83,0,0,1,2.21-1.69,4.15,4.15,0,0,0,.43-.3l.27-.21,0,0a3.83,3.83,0,0,0,.29-.28A5.46,5.46,0,0,1,276.89,162Zm0,0a14.85,14.85,0,0,0-2.51,2,14.83,14.83,0,0,1,2.21-1.69,4.15,4.15,0,0,0,.43-.3l.27-.21,0,0a3.83,3.83,0,0,0,.29-.28A5.46,5.46,0,0,1,276.89,162Z" transform="translate(1.5 -39.53)" style="fill: #0080ff;stroke: #000;stroke-miterlimit: 10;stroke-width: 3px"/>
  <path d="M401.34,399.06c8.82-2,15.23-5,22-7.06" transform="translate(1.5 -39.53)" style="fill: #0080ff;stroke: #000;stroke-miterlimit: 10;stroke-width: 3px"/>
  <path d="M302.85,136.61a17.77,17.77,0,0,0-3.27,2.61,17.58,17.58,0,0,1,2.68-2.05,6.76,6.76,0,0,0,1.42-1.17A6.58,6.58,0,0,1,302.85,136.61Zm31,94.46v-.23l-8.66,4.23c3.52,5.4,6.1,13.19,8,22.21l.1-3.74c-1.77-7.38-4.08-13.75-7.06-18.41v0c0-.09-.1-.15-.15-.24l.09,0Zm.3-125a22.5,22.5,0,0,0-4.32,3.5,21.74,21.74,0,0,1,3.42-2.61,8.4,8.4,0,0,0,1.91-1.62A8.4,8.4,0,0,1,334.15,106ZM327.56,138a22.49,22.49,0,0,1,2.27-28.43,22.44,22.44,0,0,0-7.12,16.41,22.21,22.21,0,0,0,4,12.74l9.2,13.26.05-1.91Zm7.6-32.66a8.5,8.5,0,0,0,2-2.46l.06-2.32A8.5,8.5,0,0,1,335.16,105.3Zm32.38,90.25-30.77-44.32,0,1.9,13.18,19v0L366.45,196a14.79,14.79,0,0,1-5.66,21.7l-26.15,12.78v.23l27.2-13.29A14.87,14.87,0,0,0,367.54,195.55ZM338,290a227.7,227.7,0,0,0-4.1-33.49l-.11,4.13c6.72,36.62,2.95,90.14,2.95,90.14a24.22,24.22,0,0,1-5.44,2.56l0,.76a25.8,25.8,0,0,0,6.39-2.88A537.65,537.65,0,0,0,338,290Zm-3.89-184a22.5,22.5,0,0,0-4.32,3.5,21.74,21.74,0,0,1,3.42-2.61,8.4,8.4,0,0,0,1.91-1.62A8.4,8.4,0,0,1,334.15,106Z" transform="translate(1.5 -39.53)" style="fill: red;stroke: #000;stroke-miterlimit: 10;stroke-width: 3px"/>
  <path d="M360.79,217.67l-26.15,12.78-.78.39-8.66,4.23c3.52,5.4,6.1,13.19,8,22.21.24,1.1.45,2.22.66,3.36,6.72,36.62,2.95,90.14,2.95,90.14a24.22,24.22,0,0,1-5.44,2.56l-.65.22L306,332.19c.82-15.51,2.78-71.51-9.71-90.69l29.13-14.24A12.1,12.1,0,0,0,330,209.5L316.48,190v0l-19-27.37a18.33,18.33,0,0,1,2.1-23.39,17.58,17.58,0,0,1,2.68-2.05,6.76,6.76,0,0,0,1.42-1.17h0a7,7,0,0,0,0-10.59,64.28,64.28,0,0,1-6.08-6.06l39.64-20,0,1.19a8.5,8.5,0,0,1-2.06,4.78,8.4,8.4,0,0,1-1,.73,24.84,24.84,0,0,0-11.44,19.91,22.21,22.21,0,0,0,4,12.74l9.2,13.26.83,1.19,13.18,19v0L366.45,196A14.79,14.79,0,0,1,360.79,217.67Z" transform="translate(1.5 -39.53)" style="fill: #ff0;stroke: #000;stroke-miterlimit: 10;stroke-width: 3px"/>
  <path d="M407.12,204.64c-.36.22-.72.44-1.1.64-.21.12-.43.23-.65.34l-.78.38-42.68,20.92-.11.06a2.9,2.9,0,0,1,.19.29v0c8.92,14,12.87,40.61,14.4,67a661.34,661.34,0,0,1-.4,74.78c-4.27,2.85-11.29,4.88-19.83,6.29l-24.54-21.3a25.8,25.8,0,0,0,6.37-2.88,540.21,540.21,0,0,0,.33-61.21,229.09,229.09,0,0,0-4.09-33.49c-.21-1-.44-2-.67-3-1.76-7.38-4.06-13.75-7-18.41v0c0-.09-.1-.15-.15-.24l.09,0,7.67-3.76.79-.39L362,217.4a14.9,14.9,0,0,0,5.68-21.84l-30.66-44.31-.83-1.2L327.87,138a22.56,22.56,0,0,1,2.27-28.43,21.56,21.56,0,0,1,3.4-2.61,8.4,8.4,0,0,0,1.91-1.62,8.54,8.54,0,0,0,3-6.44l20.65-10.47a27.35,27.35,0,0,0,4.53,20.18l48.66,70.34A18.23,18.23,0,0,1,407.12,204.64Z" transform="translate(1.5 -39.53)" style="fill: lime;stroke: #000;stroke-miterlimit: 10;stroke-width: 3px"/>
  <path d="M460.1,190.77,412.38,214.1c-.32.18-.64.35-1,.51l-4.69,2.29-.13.07c.06.13.16.22.23.36v0c10,15.67,15,44.28,17.19,73.84.21,2.85.45,5.72.57,8.58,2,45.62,7.24,89.6-.49,92,0,0,0,0-.08.05l-.65.2c-6.79,2-13.2,5.09-22,7.06l-.11,0c-2.59.46-5.3.87-8.11,1.24a20.85,20.85,0,0,1-14.19-5.05l-22.69-19.62a.09.09,0,0,1,0-.15c8.5-1.42,15.47-3.43,19.74-6.27a.06.06,0,0,0,0-.06c.16-2.28,7.41-108.86-14.18-142.16a.09.09,0,0,1,0-.12l43.67-21.35a18.18,18.18,0,0,0,6.95-26.68l-20.34-29.3v0l-28.55-41.12a27.33,27.33,0,0,1-4.89-15.67,28.4,28.4,0,0,1,.35-4.41.15.15,0,0,1,0-.06L398,68.64A8.52,8.52,0,0,1,407.66,70c.31.51.64,1,1,1.52l12.93,18.62L468.66,158A22.33,22.33,0,0,1,460.1,190.77Z" transform="translate(1.5 -39.53)" style="fill: red;stroke: #000;stroke-miterlimit: 10;stroke-width: 3px"/>
  <path d="M241.31,242.45l-6.23-9h0l-8.74-12.59a8.44,8.44,0,0,1,2.47-12,3.21,3.21,0,0,0,.39-5.16c-10.63-9.12-18.37-33.59-48-37.46a75.6,75.6,0,0,0-57.72,137.11v37H194v-37h.64c4.65-.06,29.37,1.45,35.53-2.66,0,0,2.34-33.29-4.36-43.57l13.4-6.55A5.57,5.57,0,0,0,241.31,242.45Zm-16.18,12-10.84,5.29c5.42,8.32,3.53,35.24,3.53,35.24-5,3.32-25,2.1-28.74,2.15l-.51.33v22.68h-57v-23a61.14,61.14,0,0,1,46.67-110.88c24,3.13,30.25,22.92,38.84,30.29a2.6,2.6,0,0,1-.31,4.18,6.81,6.81,0,0,0-2,9.67l12.1,17.44A4.51,4.51,0,0,1,225.13,254.43Z" transform="translate(1.5 -39.53)" style="fill: lime;stroke: #000;stroke-miterlimit: 10;stroke-width: 3px"/>
  <path d="M225.13,254.43l-10.84,5.29c5.42,8.32,3.53,35.24,3.53,35.24-5,3.32-25,2.1-28.74,2.15h-.51v23h-57v-23a61.14,61.14,0,0,1,46.67-110.88c24,3.13,30.25,22.92,38.84,30.29a2.6,2.6,0,0,1-.31,4.18,6.81,6.81,0,0,0-2,9.67l12.1,17.44A4.51,4.51,0,0,1,225.13,254.43Z" transform="translate(1.5 -39.53)" style="fill: #ff0;stroke: #000;stroke-miterlimit: 10;stroke-width: 3px"/>
</svg>
