<svg id="Layer_1" data-name="Layer 1" xmlns="http://www.w3.org/2000/svg" viewBox="0 0 351.93 256.29">
  <title>list</title>
  <g>
    <polygon points="40.1 254.79 1.58 232.62 1.58 188.22 40.1 210.38 40.1 254.79" style="fill: #f15a24;stroke: #000;stroke-linecap: round;stroke-linejoin: round;stroke-width: 3px"/>
    <polygon points="78.49 232.62 78.49 188.22 40.1 210.38 40.1 254.79 78.49 232.62" style="fill: #e6e600;stroke: #000;stroke-linecap: round;stroke-linejoin: round;stroke-width: 3px"/>
    <polygon points="40.03 166.02 1.58 188.22 40.1 210.38 78.49 188.22 40.03 166.02" style="fill: #2391bf;stroke: #000;stroke-linecap: round;stroke-linejoin: round;stroke-width: 3px"/>
  </g>
  <g>
    <polygon points="40.03 60.83 40.03 1.5 78.57 38.58 40.03 60.83" style="fill: #fba319;stroke: #000;stroke-linecap: round;stroke-linejoin: round;stroke-width: 3px"/>
    <polyline points="40.03 60.83 1.5 38.58 40.03 1.5" style="fill: #f7541e;stroke: #000;stroke-linecap: round;stroke-linejoin: round;stroke-width: 3px"/>
  </g>
  <g>
    <path d="M106.9,209.78c-.41,4.45-3.65,8.91-9.68,12.39a34,34,0,0,1-3.52,1.77c-11.69,5.11-27.67,5.16-38.49,0-.71-.33-1.38-.68-2-1.07-5-2.9-7.82-6.62-8.42-10.5-.8-5.25,2.44-10.77,9.62-14.92,12.5-7.22,32.21-7.53,44-.7C104.53,200.27,107.34,205,106.9,209.78Z" transform="translate(-35.78 -118.64)" style="fill: #e6004c;stroke: #000;stroke-miterlimit: 10;stroke-width: 3px"/>
    <path d="M106.9,254.3v-1.93A10.37,10.37,0,0,1,106.9,254.3Z" transform="translate(-35.78 -118.64)" style="fill: #c60059;stroke: #000;stroke-miterlimit: 10;stroke-width: 3px"/>
    <path d="M106.9,209.78v44.55c-.42,4.44-3.66,8.89-9.68,12.37-12.5,7.21-32.22,7.52-44,.69-6.12-3.53-8.94-8.29-8.48-13.06v-42h.06c.6,3.88,3.39,7.6,8.42,10.5.66.39,1.33.74,2,1.07,10.82,5.17,26.8,5.12,38.49,0a34,34,0,0,0,3.52-1.77C103.25,218.69,106.49,214.23,106.9,209.78Z" transform="translate(-35.78 -118.64)" style="fill: #0c6;stroke: #000;stroke-miterlimit: 10;stroke-width: 3px"/>
  </g>
  <path d="M272.72,136.93v27.63H171.24a12,12,0,0,1-12-12v-3.63a12,12,0,0,1,12-12Z" transform="translate(-35.78 -118.64)" style="fill: #f7541e;stroke: #000;stroke-linecap: round;stroke-linejoin: round;stroke-width: 3px"/>
  <path d="M223.82,326.33V354H171.24a12,12,0,0,1-12-12v-3.63a12,12,0,0,1,12-12Z" transform="translate(-35.78 -118.64)" style="fill: #2391bf;stroke: #000;stroke-linecap: round;stroke-linejoin: round;stroke-width: 3px"/>
  <path d="M386.21,338.33V342a12,12,0,0,1-12,12H325.12V326.33h49.09A12,12,0,0,1,386.21,338.33Z" transform="translate(-35.78 -118.64)" style="fill: #e6e600;stroke: #000;stroke-linecap: round;stroke-linejoin: round;stroke-width: 3px"/>
  <path d="M386.21,148.93v3.63a12,12,0,0,1-12,12H272.72V136.93H374.21A12,12,0,0,1,386.21,148.93Z" transform="translate(-35.78 -118.64)" style="fill: #fba319;stroke: #000;stroke-linecap: round;stroke-linejoin: round;stroke-width: 3px"/>
  <path d="M272.72,227.23v27.63H171.24a12,12,0,0,1-12-12v-3.63a12,12,0,0,1,12-12Z" transform="translate(-35.78 -118.64)" style="fill: #e6004c;stroke: #000;stroke-miterlimit: 10;stroke-width: 3px"/>
  <path d="M386.21,239.23v3.63a12,12,0,0,1-12,12H272.72V227.23H374.21A12,12,0,0,1,386.21,239.23Z" transform="translate(-35.78 -118.64)" style="fill: #0c6;stroke: #000;stroke-miterlimit: 10;stroke-width: 3px"/>
  <rect x="188.04" y="207.69" width="101.3" height="27.63" style="fill: #f15a24;stroke: #000;stroke-linecap: round;stroke-linejoin: round;stroke-width: 3px"/>
</svg>
