<svg id="Layer_1" data-name="Layer 1" xmlns="http://www.w3.org/2000/svg" viewBox="0 0 547.85 300.05"><defs><style>.cls-1{fill:#ff9500;stroke:#a87e00;}.cls-1,.cls-2,.cls-3,.cls-4{stroke-miterlimit:10;stroke-width:3.6px;}.cls-2{fill:#00ff80;stroke:#00a855;}.cls-3{fill:#05f;stroke:#0038a8;}.cls-4{fill:#ff0040;stroke:#a80000;}.cls-5{fill:#fff;}.cls-6{fill:none;}</style></defs><title>logo-ad</title><path class="cls-1" d="M423.9,118.52c-60.19,0-135.22,37.19-135.22,87.43,0,0,0,.05,0,.06,0,80.94,103.86-45.72,103.86,66.69,0,98.48-102.87-11.3-102.87,56.92a.5.5,0,0,1,0,.13c0,62.78,74.87,85.21,134.2,85.21a148.22,148.22,0,1,0,0-296.44Zm-83.08,97.54A20.37,20.37,0,1,1,361.2,195.7,20.37,20.37,0,0,1,340.82,216.06Z" transform="translate(-26.07 -116.72)"/><path class="cls-2" d="M558.68,265.93a34.31,34.31,0,1,1-68.61,0c0-19,19.48-12.63,34.3-26.19C543.87,221.92,558.68,247,558.68,265.93Z" transform="translate(-26.07 -116.72)"/><path class="cls-3" d="M453.59,320.05c19,0,5.56,13.93,34.31,34.31,15.46,11-15.36,34.3-34.31,34.3a34.31,34.31,0,0,1,0-68.61Z" transform="translate(-26.07 -116.72)"/><path class="cls-4" d="M490.07,179.67A34.31,34.31,0,0,1,455.76,214c-18.95,0-37.69-24.49-25.36-34.3,14.82-11.8,6.41-34.31,25.36-34.31A34.31,34.31,0,0,1,490.07,179.67Z" transform="translate(-26.07 -116.72)"/><path class="cls-1" d="M31,393.9,259.71,127.67c6.68-7.77,18.09-2.27,18.09,8.72V402.62c0,6.82-4.74,12.34-10.6,12.34H38.49C29.05,415,24.32,401.67,31,393.9Zm84.23-24.17H235.42a3.85,3.85,0,0,0,3.53-4.11V225.72c0-3.66-3.81-5.5-6-2.91L112.73,362.72C110.51,365.31,112.08,369.73,115.23,369.73Z" transform="translate(-26.07 -116.72)"/><polygon class="cls-5" points="197.81 52.68 205.97 62.19 209.72 57.83 201.55 48.32 197.81 52.68"/><polygon class="cls-5" points="183.18 69.69 198.84 87.92 202.58 83.55 186.93 65.33 183.18 69.69"/><polygon class="cls-5" points="168.56 86.7 176.73 96.2 180.47 91.84 172.31 82.34 168.56 86.7"/><polygon class="cls-5" points="153.95 103.71 169.6 121.94 173.35 117.58 157.69 99.35 153.95 103.71"/><polygon class="cls-5" points="139.33 120.73 147.49 130.23 151.24 125.87 143.07 116.37 139.33 120.73"/><polygon class="cls-5" points="124.7 137.75 140.36 155.98 144.11 151.62 128.45 133.39 124.7 137.75"/><polygon class="cls-5" points="110.09 154.76 118.26 164.27 122 159.91 113.84 150.4 110.09 154.76"/><polygon class="cls-5" points="95.49 171.78 111.14 190 114.89 185.64 99.23 167.42 95.49 171.78"/><polygon class="cls-5" points="80.87 188.8 89.04 198.31 92.78 193.94 84.62 184.44 80.87 188.8"/><polygon class="cls-5" points="66.25 205.8 81.9 224.03 85.65 219.67 69.99 201.44 66.25 205.8"/><polygon class="cls-5" points="51.63 222.8 59.79 232.31 63.54 227.94 55.37 218.44 51.63 222.8"/><polygon class="cls-5" points="37.02 239.81 52.68 258.04 56.43 253.68 40.77 235.45 37.02 239.81"/><path class="cls-6" d="M333.33,312.38" transform="translate(-26.07 -116.72)"/></svg>