<svg id="Layer_1" data-name="Layer 1" xmlns="http://www.w3.org/2000/svg" xmlns:xlink="http://www.w3.org/1999/xlink" viewBox="0 0 499.04 422.38">
  <defs>
    <linearGradient id="linear-gradient" x1="284.92" y1="343.04" x2="309.16" y2="343.04" gradientUnits="userSpaceOnUse">
      <stop offset="0.1" stop-color="#41464e"/>
      <stop offset="0.59" stop-color="#4b515a"/>
      <stop offset="1" stop-color="#565d68"/>
    </linearGradient>
    <linearGradient id="linear-gradient-2" x1="277.51" y1="337.11" x2="318.01" y2="337.11" gradientUnits="userSpaceOnUse">
      <stop offset="0" stop-color="#d7d1eb"/>
      <stop offset="0.9" stop-color="#e9e5f6"/>
    </linearGradient>
    <radialGradient id="radial-gradient" cx="286.96" cy="294.48" fx="311.8629520502937" fy="271.4359641488741" r="54.96" gradientUnits="userSpaceOnUse">
      <stop offset="0.03" stop-color="#fcf3b3"/>
      <stop offset="0.14" stop-color="#fcf1a8"/>
      <stop offset="0.33" stop-color="#faec8b"/>
      <stop offset="0.58" stop-color="#f8e55c"/>
      <stop offset="0.71" stop-color="#f7e041"/>
      <stop offset="0.95" stop-color="#ffc538"/>
    </radialGradient>
    <linearGradient id="linear-gradient-3" x1="314.72" y1="820.66" x2="310.51" y2="789.76" gradientTransform="matrix(1, 0, 0, -1, -6, 1104)" gradientUnits="userSpaceOnUse">
      <stop offset="0" stop-color="#ffa538"/>
      <stop offset="1" stop-color="#ffa538" stop-opacity="0"/>
    </linearGradient>
    <linearGradient id="linear-gradient-4" x1="290.56" y1="799.99" x2="298.49" y2="780.9" xlink:href="#linear-gradient-3"/>
    <linearGradient id="linear-gradient-5" x1="296.82" y1="802.11" x2="316.03" y2="827.57" gradientTransform="matrix(1, 0, 0, -1, -6, 1104)" gradientUnits="userSpaceOnUse">
      <stop offset="0" stop-color="#fff"/>
      <stop offset="1" stop-color="#fff" stop-opacity="0"/>
    </linearGradient>
  </defs>
  <title>map</title>
  <path d="M410.35,241.12c10.85,45.11-37.69,51.82-59.19,52.61a55.87,55.87,0,0,0-23.57-36.54c18.53,5.58,59.16,11.33,55.88-47.13-4.11-73.26,60.4-96,64.28-97.34C444.06,114.28,386.14,140.42,410.35,241.12Z" transform="translate(-54.23 -89.64)"/>
  <path d="M258.35,262.12a55.72,55.72,0,0,0-17.87,35.2c-15.88,2.2-61.11,4.52-49.66-43.14,24.21-100.7-33.7-126.84-37.39-128.4,3.88,1.3,68.39,24.08,64.28,97.34C214.63,278,242.76,270.38,258.35,262.12Z" transform="translate(-54.23 -89.64)"/>
  <ellipse cx="61" cy="36.07" rx="59.9" ry="21.88" style="fill: #ed1c24;stroke: #000;stroke-miterlimit: 10;stroke-width: 2.1974366185993706px"/>
  <ellipse cx="434.87" cy="23.01" rx="63.04" ry="21.88" style="fill: #f15a24;stroke: #000;stroke-miterlimit: 10;stroke-width: 2.2543759032043558px"/>
  <path d="M153.24,125.71" transform="translate(-54.23 -89.64)" style="fill: none;stroke: #000;stroke-miterlimit: 10;stroke-width: 1.3281985294118077px"/>
  <path d="M447.75,488.94c-3.88-1.3-68.39-24.08-64.28-97.34,2.91-51.77-28.79-52.31-49-47.52A55.79,55.79,0,0,0,351.82,308c21.81.9,69.27,7.92,58.53,52.58C386.14,461.24,444.06,487.38,447.75,488.94Z" transform="translate(-54.23 -89.64)"/>
  <path d="M251.28,336.89c-15.82-6.11-36.2-5.28-33.57,41.65,4.11,73.26-60.4,96-64.28,97.34,3.69-1.56,61.6-27.7,37.39-128.4-11.38-47.36,33.19-45.38,49.34-43.19A55.68,55.68,0,0,0,251.28,336.89Z" transform="translate(-54.23 -89.64)"/>
  <ellipse cx="61" cy="386.31" rx="59.9" ry="21.88" style="fill: #f7931e;stroke: #000;stroke-miterlimit: 10;stroke-width: 2.1974366185993706px"/>
  <ellipse cx="434.87" cy="399.37" rx="63.04" ry="21.88" style="fill: #fcee21;stroke: #000;stroke-miterlimit: 10;stroke-width: 2.2543759032043558px"/>
  <path d="M153.24,476" transform="translate(-54.23 -89.64)" style="fill: none;stroke: #000;stroke-miterlimit: 10;stroke-width: 1.3281985294118077px"/>
  <path d="M329.8,293.28a33.7,33.7,0,0,1-8.62,22.55A20.39,20.39,0,0,0,317,322.9a21.92,21.92,0,0,1-2.6,5.27v5.27a18.44,18.44,0,0,1-7.95,15.18,11,11,0,0,1-21,0,18.42,18.42,0,0,1-8-15.18v-3.51a15.39,15.39,0,0,1-.12-1.93,22.1,22.1,0,0,1-2.48-5.1,20.75,20.75,0,0,0-4.2-7.11,33.83,33.83,0,1,1,59.09-22.51Z" transform="translate(-54.23 -89.64)" style="fill: #fff;stroke: #000;stroke-miterlimit: 10"/>
  <g>
    <path d="M307,329.84V345.2a11,11,0,0,1-21.54,3.42,10.7,10.7,0,0,1-.55-3.42V331.74Z" transform="translate(-54.23 -89.64)" style="fill: url(#linear-gradient)"/>
    <path d="M314.42,322.33v11.11a18.46,18.46,0,0,1-36.91,0v-7.93l10.18-.88,4.44-.38Z" transform="translate(-54.23 -89.64)" style="fill: url(#linear-gradient-2)"/>
    <path d="M314.31,324.58v3.29c0,.16,0,.32,0,.48a18.46,18.46,0,0,1-36.79,1.58,15.39,15.39,0,0,1-.12-1.93v-3.42a17.53,17.53,0,0,0,.12,2.06,15.39,15.39,0,0,0,.35,2.05,18.46,18.46,0,0,0,35.89.44A19,19,0,0,0,314.31,324.58Z" transform="translate(-54.23 -89.64)" style="fill: #c5baeb"/>
    <path d="M329.8,293.28a33.7,33.7,0,0,1-8.62,22.55A20.39,20.39,0,0,0,317,322.9a21.92,21.92,0,0,1-2.6,5.27.94.94,0,0,1-.12.18l-.55.78a22.22,22.22,0,0,1-35.89-.44l-.35-.5-.12-.19a22.1,22.1,0,0,1-2.48-5.1,20.75,20.75,0,0,0-4.2-7.11,33.83,33.83,0,1,1,59.09-22.51Z" transform="translate(-54.23 -89.64)" style="fill: url(#radial-gradient)"/>
    <path d="M304.64,317.23l-.32,0a2.39,2.39,0,0,1-2.05-2.69l4-32.13A2.39,2.39,0,1,1,311,283l-4,32.13a2.39,2.39,0,0,1-2.37,2.07Z" transform="translate(-54.23 -89.64)" style="fill: url(#linear-gradient-3)"/>
    <path d="M289.83,326a2.38,2.38,0,0,1-2.21-1.47l-5.16-26.17a2.39,2.39,0,0,1,4.42-1.83L292,322.66a2.38,2.38,0,0,1-1.29,3.12,2.29,2.29,0,0,1-.92.18Z" transform="translate(-54.23 -89.64)" style="fill: url(#linear-gradient-4)"/>
    <path d="M284.67,299.8a2.39,2.39,0,0,1-1.25-4.43l23.93-14.7a2.39,2.39,0,0,1,2.5,4.08l-23.93,14.69a2.38,2.38,0,0,1-1.25.36Z" transform="translate(-54.23 -89.64)" style="fill: #ffa538"/>
    <path d="M314.24,269.21c-8.09-5.19-17.81-4.48-21.71,1.59s-.5,15.21,7.59,20.4,17.82,4.49,21.72-1.59S322.33,274.41,314.24,269.21Z" transform="translate(-54.23 -89.64)" style="fill: url(#linear-gradient-5)"/>
  </g>
</svg>
