<svg xmlns="http://www.w3.org/2000/svg" xmlns:xlink="http://www.w3.org/1999/xlink" viewBox="0 0 133.24 112.46">
  <defs>
    <clipPath id="clip-path">
      <path d="M88.82,12.5l0,12.23A3.93,3.93,0,0,1,86.48,28l0-12.23A3.93,3.93,0,0,0,88.82,12.5Z" style="fill: none"/>
    </clipPath>
    <clipPath id="clip-path-2">
      <path d="M7.13,57.48l0-12.23a4,4,0,0,0,2.35,3.28l0,12.23C7.91,59.86,7.12,58.67,7.13,57.48Z" style="fill: none"/>
    </clipPath>
    <clipPath id="clip-path-3">
      <path d="M25.44,51.25l0,12.22a12.37,12.37,0,0,1-11.24,0l0-12.22A12.41,12.41,0,0,0,25.44,51.25Z" style="fill: none"/>
    </clipPath>
    <clipPath id="clip-path-4">
      <path d="M89.79,36.28l0,12.22a4,4,0,0,1-2.31,3.24l0-12.23A4,4,0,0,0,89.79,36.28Z" style="fill: none"/>
    </clipPath>
    <clipPath id="clip-path-5">
      <path d="M27.2,74.56l0,12.23a12.43,12.43,0,0,1-11.24,0l0-12.23A12.41,12.41,0,0,0,27.2,74.56Z" style="fill: none"/>
    </clipPath>
    <clipPath id="clip-path-6">
      <path d="M130.32,37l0,12.23a3.93,3.93,0,0,1-2.3,3.23l0-12.23A4,4,0,0,0,130.32,37Z" style="fill: none"/>
    </clipPath>
    <clipPath id="clip-path-7">
      <path d="M50.21,81.07l0-12.22c0,1.18.78,2.37,2.35,3.27l0,12.23A4,4,0,0,1,50.21,81.07Z" style="fill: none"/>
    </clipPath>
    <clipPath id="clip-path-8">
      <path d="M68.53,74.83l0,12.23a12.38,12.38,0,0,1-11.23,0l0-12.23A12.4,12.4,0,0,0,68.53,74.83Z" style="fill: none"/>
    </clipPath>
    <clipPath id="clip-path-9">
      <path d="M133.24,60l0,12.23a3.93,3.93,0,0,1-2.3,3.22l0-12.22A4,4,0,0,0,133.24,60Z" style="fill: none"/>
    </clipPath>
    <clipPath id="clip-path-10">
      <path d="M69.49,98.89l0,12.23a12.4,12.4,0,0,1-11.24,0l0-12.22A12.35,12.35,0,0,0,69.49,98.89Z" style="fill: none"/>
    </clipPath>
  </defs>
  <title>Asset 1</title>
  <g id="Layer_2" data-name="Layer 2">
    <g id="Layer_1-2" data-name="Layer 1">
      <g>
        <g style="isolation: isolate">
          <g style="isolation: isolate">
            <g style="clip-path: url(#clip-path)">
              <g style="isolation: isolate">
                <path d="M88.82,12.5l0,12.23v.07l0-12.23V12.5" style="fill: #850d4a"/>
                <path d="M88.82,12.57l0,12.23a3.44,3.44,0,0,1-.05.45l0-12.22a2.4,2.4,0,0,0,0-.46" style="fill: #8a0d4c"/>
                <path d="M88.77,13l0,12.22a3.81,3.81,0,0,1-.13.45l0-12.23a2.23,2.23,0,0,0,.13-.44" style="fill: #8f0e4f"/>
                <path d="M88.64,13.47l0,12.23a4.54,4.54,0,0,1-.21.45l0-12.22a2.11,2.11,0,0,0,.21-.46" style="fill: #930e51"/>
                <path d="M88.43,13.93l0,12.22a4.45,4.45,0,0,1-.32.48l0-12.23a3.55,3.55,0,0,0,.32-.47" style="fill: #980f54"/>
                <path d="M88.11,14.4l0,12.23a4.93,4.93,0,0,1-.5.53l0-12.23a4.81,4.81,0,0,0,.49-.53" style="fill: #9c0f56"/>
                <path d="M87.62,14.93l0,12.23a6.18,6.18,0,0,1-1,.74l0-12.22a7,7,0,0,0,1-.75" style="fill: #a10f59"/>
                <path d="M86.61,15.68l0,12.22-.1.06,0-12.23.09-.05" style="fill: #a6105b"/>
              </g>
            </g>
          </g>
          <path d="M81.74,0l0,6.51,4.7,2.71c3.11,1.8,3.13,4.71,0,6.51L51.7,36l3.62-20.62,14.82-8.6Z" style="fill: #c6136d"/>
          <polygon points="86.52 15.73 86.48 27.96 51.66 48.19 51.7 35.97 86.52 15.73" style="fill: #b11162"/>
          <polygon points="49.86 18.55 49.82 30.78 46.2 51.39 46.23 39.17 49.86 18.55" style="fill: #00468d"/>
          <g style="isolation: isolate">
            <g style="clip-path: url(#clip-path-2)">
              <g style="isolation: isolate">
                <path d="M9.51,48.53l0,12.23c-1.56-.9-2.35-2.09-2.34-3.28l0-12.23a4,4,0,0,0,2.35,3.28" style="fill: #003c78"/>
              </g>
            </g>
          </g>
          <polygon points="46.23 39.17 46.2 51.39 25.41 63.47 25.44 51.25 46.23 39.17" style="fill: #0059b1"/>
          <polygon points="14.21 51.25 14.17 63.47 9.47 60.76 9.51 48.53 14.21 51.25" style="fill: #003e7b"/>
          <path d="M49.86,18.55,46.23,39.17,25.44,51.25a12.41,12.41,0,0,1-11.23,0l-4.7-2.72c-3.11-1.79-3.14-4.71,0-6.51Z" style="fill: #0063c6"/>
          <g style="isolation: isolate">
            <g style="clip-path: url(#clip-path-3)">
              <g style="isolation: isolate">
                <path d="M25.44,51.25l0,12.22a8.83,8.83,0,0,1-1.74.77L23.7,52a9.15,9.15,0,0,0,1.74-.76" style="fill: #0053a6"/>
                <path d="M23.7,52l0,12.23a10.41,10.41,0,0,1-1.51.37l0-12.22A11.75,11.75,0,0,0,23.7,52" style="fill: #0051a1"/>
                <path d="M22.2,52.39l0,12.22c-.33.06-.67.11-1,.14l0-12.22c.34,0,.68-.08,1-.14" style="fill: #004e9c"/>
                <path d="M21.19,52.53l0,12.22c-.29,0-.59,0-.88.06l0-12.22c.3,0,.59,0,.89-.06" style="fill: #004c98"/>
                <path d="M20.3,52.59l0,12.22h-.81l0-12.23h.81" style="fill: #004a93"/>
                <path d="M19.49,52.59l0,12.23-.79,0,0-12.23.78,0" style="fill: #00478f"/>
                <path d="M18.71,52.55l0,12.23-.77-.09,0-12.23q.39.06.78.09" style="fill: #00458a"/>
                <path d="M17.93,52.46l0,12.23c-.27,0-.53-.08-.79-.14l0-12.23c.26.06.53.1.79.14" style="fill: #004385"/>
                <path d="M17.14,52.32l0,12.23c-.28-.06-.56-.12-.83-.2l0-12.23a7.54,7.54,0,0,0,.82.2" style="fill: #004081"/>
                <path d="M16.32,52.12l0,12.23a9.86,9.86,0,0,1-1-.33l0-12.22a9.18,9.18,0,0,0,1,.32" style="fill: #003e7c"/>
                <path d="M15.35,51.8l0,12.22a8.13,8.13,0,0,1-1.15-.55l0-12.22a9.26,9.26,0,0,0,1.14.55" style="fill: #003c78"/>
              </g>
            </g>
          </g>
        </g>
        <g style="isolation: isolate">
          <g style="isolation: isolate">
            <g style="clip-path: url(#clip-path-4)">
              <g style="isolation: isolate">
                <path d="M89.79,36.28l0,12.22v.07l0-12.22a.2.2,0,0,0,0-.07" style="fill: #850d4a"/>
                <path d="M89.78,36.35l0,12.22a2.31,2.31,0,0,1,0,.46l0-12.23a2.3,2.3,0,0,0,0-.45" style="fill: #8a0d4c"/>
                <path d="M89.73,36.8,89.7,49a2.54,2.54,0,0,1-.13.45l0-12.23a2.54,2.54,0,0,0,.13-.45" style="fill: #8f0e4f"/>
                <path d="M89.6,37.25l0,12.23a4.54,4.54,0,0,1-.21.45l0-12.23a2.27,2.27,0,0,0,.21-.45" style="fill: #930e51"/>
                <path d="M89.39,37.7l0,12.23a3.55,3.55,0,0,1-.32.47l0-12.22a3.34,3.34,0,0,0,.32-.48" style="fill: #980f54"/>
                <path d="M89.07,38.18,89,50.4a4.05,4.05,0,0,1-.49.53l0-12.22a4,4,0,0,0,.49-.53" style="fill: #9c0f56"/>
                <path d="M88.58,38.71l0,12.22a5.76,5.76,0,0,1-1,.75l0-12.23a5.86,5.86,0,0,0,1-.74" style="fill: #a10f59"/>
                <path d="M87.57,39.45l0,12.23-.1.06,0-12.23.09-.06" style="fill: #a6105b"/>
              </g>
            </g>
          </g>
          <polygon points="87.48 39.51 87.44 51.74 66.66 63.81 66.7 51.59 87.48 39.51" style="fill: #b11162"/>
          <path d="M87.44,33c3.11,1.79,3.13,4.71,0,6.51L66.7,51.58,48.91,52.67l1.81-10.31L71.53,30.27a12.37,12.37,0,0,1,11.21,0Z" style="fill: #c6136d"/>
          <polygon points="66.7 51.59 66.66 63.81 48.88 64.9 48.91 52.67 66.7 51.59" style="fill: #a5105b"/>
          <polygon points="46.04 45.1 46.01 57.33 44.19 67.64 44.23 55.41 46.04 45.1" style="fill: #00468d"/>
          <polygon points="11.27 71.84 11.23 84.07 0 84.07 0.04 71.84 11.27 71.84" style="fill: #0050a0"/>
          <polygon points="62 54.34 61.97 66.56 27.17 86.78 27.2 74.56 62 54.34" style="fill: #0059b1"/>
          <polygon points="15.97 74.56 15.93 86.78 11.23 84.07 11.27 71.84 15.97 74.56" style="fill: #003e7b"/>
          <path d="M46,45.1,44.23,55.41,62,54.33,27.2,74.56a12.41,12.41,0,0,1-11.23,0l-4.7-2.72H0L11.64,65.1Z" style="fill: #0063c6"/>
          <g style="isolation: isolate">
            <g style="clip-path: url(#clip-path-5)">
              <g style="isolation: isolate">
                <path d="M27.2,74.56l0,12.23a9.15,9.15,0,0,1-1.74.76l0-12.23a9.05,9.05,0,0,0,1.73-.76" style="fill: #0053a6"/>
                <path d="M25.47,75.32l0,12.23a11.74,11.74,0,0,1-1.5.37L24,75.7a11.91,11.91,0,0,0,1.51-.38" style="fill: #0051a1"/>
                <path d="M24,75.7l0,12.22c-.34.06-.67.11-1,.14l0-12.22c.34,0,.68-.08,1-.14" style="fill: #004e9c"/>
                <path d="M23,75.84l0,12.22c-.29,0-.58,0-.88.06l0-12.22c.3,0,.6,0,.89-.06" style="fill: #004c98"/>
                <path d="M22.06,75.9l0,12.22h-.82l0-12.23h.81" style="fill: #004a93"/>
                <path d="M21.25,75.9l0,12.23-.78,0,0-12.23.79,0" style="fill: #00478f"/>
                <path d="M20.46,75.86l0,12.23L19.66,88l0-12.23c.26,0,.51.07.77.09" style="fill: #00458a"/>
                <path d="M19.69,75.77l0,12.23c-.27,0-.53-.08-.79-.14l0-12.23c.26.06.52.1.79.14" style="fill: #004385"/>
                <path d="M18.9,75.63l0,12.23c-.28-.06-.56-.12-.83-.2l0-12.23a7.72,7.72,0,0,0,.83.2" style="fill: #004081"/>
                <path d="M18.07,75.43l0,12.23a10,10,0,0,1-1-.33l0-12.22a9.82,9.82,0,0,0,1,.32" style="fill: #003e7c"/>
                <path d="M17.11,75.11l0,12.22a10,10,0,0,1-1.14-.54l0-12.23a9.26,9.26,0,0,0,1.14.55" style="fill: #003c78"/>
              </g>
            </g>
          </g>
        </g>
        <g style="isolation: isolate">
          <g style="isolation: isolate">
            <g style="clip-path: url(#clip-path-6)">
              <g style="isolation: isolate">
                <path d="M130.32,37l0,12.23v.07l0-12.23V37" style="fill: #850d4a"/>
                <path d="M130.32,37.09l0,12.23a2.49,2.49,0,0,1-.05.46l0-12.23a3.4,3.4,0,0,0,.06-.46" style="fill: #8a0d4c"/>
                <path d="M130.26,37.55l0,12.23a2.23,2.23,0,0,1-.13.44l0-12.22a2.54,2.54,0,0,0,.13-.45" style="fill: #8f0e4f"/>
                <path d="M130.13,38l0,12.22a3.82,3.82,0,0,1-.21.46l0-12.23a2.27,2.27,0,0,0,.21-.45" style="fill: #930e51"/>
                <path d="M129.92,38.45l0,12.23a4.35,4.35,0,0,1-.32.47l0-12.23a2.79,2.79,0,0,0,.32-.47" style="fill: #980f54"/>
                <path d="M129.6,38.92l0,12.23a4.81,4.81,0,0,1-.49.53l0-12.23a4,4,0,0,0,.49-.53" style="fill: #9c0f56"/>
                <path d="M129.11,39.45l0,12.23a6.65,6.65,0,0,1-1,.74l0-12.23a6.18,6.18,0,0,0,1-.74" style="fill: #a10f59"/>
                <path d="M128.11,40.19l0,12.23-.1.06,0-12.23.1-.06" style="fill: #a6105b"/>
              </g>
            </g>
          </g>
          <polygon points="95.02 50.17 94.99 62.4 77.21 63.48 77.24 51.25 95.02 50.17" style="fill: #a5105b"/>
          <polygon points="128.01 40.25 127.98 52.48 93.28 72.64 93.31 60.42 128.01 40.25" style="fill: #b11162"/>
          <path d="M123.23,24.52l0,6.51,4.7,2.71c3.11,1.8,3.13,4.71,0,6.51L93.31,60.42,95,50.17,77.24,51.25l34.39-20Z" style="fill: #c6136d"/>
          <polygon points="91.14 52.45 91.11 64.67 89.39 74.92 89.42 62.69 91.14 52.45" style="fill: #00468c"/>
          <g style="isolation: isolate">
            <g style="clip-path: url(#clip-path-7)">
              <g style="isolation: isolate">
                <path d="M52.6,72.12l0,12.23a4,4,0,0,1-2.35-3.28l0-12.22c0,1.18.78,2.37,2.35,3.27" style="fill: #003c78"/>
              </g>
            </g>
          </g>
          <polygon points="89.42 62.69 89.39 74.92 68.49 87.06 68.53 74.83 89.42 62.69" style="fill: #0059b1"/>
          <polygon points="57.3 74.84 57.26 87.06 52.56 84.35 52.6 72.13 57.3 74.84" style="fill: #003e7b"/>
          <path d="M91.14,52.45,89.42,62.69,68.53,74.83a12.4,12.4,0,0,1-11.24,0L52.6,72.12c-3.12-1.79-3.14-4.71,0-6.51l20.8-12.08Z" style="fill: #0063c6"/>
          <g style="isolation: isolate">
            <g style="clip-path: url(#clip-path-8)">
              <g style="isolation: isolate">
                <path d="M68.53,74.83l0,12.23a8.83,8.83,0,0,1-1.74.77l0-12.23a8.67,8.67,0,0,0,1.75-.77" style="fill: #0053a6"/>
                <path d="M66.78,75.6l0,12.23a11.89,11.89,0,0,1-1.51.37l0-12.22a11.75,11.75,0,0,0,1.5-.38" style="fill: #0051a1"/>
                <path d="M65.28,76l0,12.22c-.33.06-.67.11-1,.14l0-12.22c.35,0,.68-.08,1-.14" style="fill: #004e9c"/>
                <path d="M64.26,76.12l0,12.22c-.29,0-.59,0-.88.06l0-12.22c.3,0,.59,0,.88-.06" style="fill: #004c98"/>
                <path d="M63.38,76.18l0,12.22h-.81l0-12.23h.81" style="fill: #004a93"/>
                <path d="M62.57,76.18l0,12.23c-.27,0-.53,0-.79,0l0-12.22.78,0" style="fill: #00478f"/>
                <path d="M61.79,76.14l0,12.22L61,88.28l0-12.23c.25,0,.51.07.77.09" style="fill: #00458a"/>
                <path d="M61,76.05l0,12.23c-.26,0-.53-.08-.78-.14l0-12.23c.26.06.52.1.79.14" style="fill: #004385"/>
                <path d="M60.23,75.91l0,12.23c-.29-.06-.56-.12-.83-.2l0-12.23a7.72,7.72,0,0,0,.83.2" style="fill: #004081"/>
                <path d="M59.4,75.71l0,12.23a10,10,0,0,1-1-.33l0-12.22a9.82,9.82,0,0,0,1,.32" style="fill: #003e7c"/>
                <path d="M58.44,75.39l0,12.22a10,10,0,0,1-1.14-.54l0-12.23a10.16,10.16,0,0,0,1.15.55" style="fill: #003c78"/>
              </g>
            </g>
          </g>
        </g>
        <g style="isolation: isolate">
          <g style="isolation: isolate">
            <g style="clip-path: url(#clip-path-9)">
              <g style="isolation: isolate">
                <path d="M133.24,60l0,12.23v.07l0-12.23s0-.05,0-.07" style="fill: #850d4a"/>
                <path d="M133.23,60l0,12.23a3.44,3.44,0,0,1,0,.45l0-12.23a2.3,2.3,0,0,0,0-.45" style="fill: #8a0d4c"/>
                <path d="M133.18,60.48l0,12.23a3.81,3.81,0,0,1-.13.45l0-12.23a2.54,2.54,0,0,0,.13-.45" style="fill: #8f0e4f"/>
                <path d="M133.05,60.93l0,12.23a4.54,4.54,0,0,1-.21.45l0-12.23a2.27,2.27,0,0,0,.21-.45" style="fill: #930e51"/>
                <path d="M132.84,61.38l0,12.23a3.55,3.55,0,0,1-.32.47l0-12.22a3.34,3.34,0,0,0,.32-.48" style="fill: #980f54"/>
                <path d="M132.52,61.86l0,12.22a4.81,4.81,0,0,1-.49.53l0-12.23a3.94,3.94,0,0,0,.49-.52" style="fill: #9c0f56"/>
                <path d="M132,62.38l0,12.23a7,7,0,0,1-1,.75l0-12.23a5.67,5.67,0,0,0,1-.75" style="fill: #a10f59"/>
                <path d="M131,63.13l0,12.23-.09,0,0-12.22.1-.06" style="fill: #a6105b"/>
              </g>
            </g>
          </g>
          <path d="M130.89,56.68c3.11,1.8,3.13,4.71,0,6.51L90.62,86.61,94,66.13,115,54a12.35,12.35,0,0,1,11.23,0Z" style="fill: #c6136d"/>
          <polygon points="130.93 63.19 130.9 75.41 90.58 98.84 90.62 86.61 130.93 63.19" style="fill: #b11162"/>
          <polygon points="88.19 69.53 88.15 81.75 84.74 102.23 84.78 90.01 88.19 69.53" style="fill: #00468c"/>
          <polygon points="53.56 96.17 53.52 108.4 42.29 108.41 42.33 96.18 53.56 96.17" style="fill: #0050a0"/>
          <polygon points="84.78 90.01 84.74 102.23 69.45 111.12 69.49 98.89 84.78 90.01" style="fill: #0059b1"/>
          <polygon points="58.26 98.89 58.22 111.11 53.52 108.4 53.56 96.17 58.26 98.89" style="fill: #003e7b"/>
          <path d="M88.19,69.53,84.78,90,69.49,98.89a12.35,12.35,0,0,1-11.23,0l-4.7-2.72H42.33l11.6-6.75Z" style="fill: #0063c6"/>
          <g style="isolation: isolate">
            <g style="clip-path: url(#clip-path-10)">
              <g style="isolation: isolate">
                <path d="M69.49,98.89l0,12.23a8.81,8.81,0,0,1-1.74.76l0-12.23a8.56,8.56,0,0,0,1.74-.76" style="fill: #0053a6"/>
                <path d="M67.75,99.65l0,12.23a11.91,11.91,0,0,1-1.51.38l0-12.23a10.29,10.29,0,0,0,1.5-.38" style="fill: #0051a1"/>
                <path d="M66.25,100l0,12.23c-.33.06-.67.1-1,.14l0-12.23c.34,0,.68-.08,1-.14" style="fill: #004e9c"/>
                <path d="M65.24,100.17l0,12.23c-.29,0-.58,0-.88.06l0-12.23c.29,0,.59,0,.88-.06" style="fill: #004c98"/>
                <path d="M64.36,100.23l0,12.23c-.27,0-.54,0-.81,0l0-12.23h.82" style="fill: #004a93"/>
                <path d="M63.54,100.23l0,12.23-.78,0,0-12.23c.26,0,.52,0,.78,0" style="fill: #00478f"/>
                <path d="M62.76,100.19l0,12.23q-.39,0-.78-.09l0-12.23c.25,0,.51.07.77.09" style="fill: #00458a"/>
                <path d="M62,100.1l0,12.23c-.26,0-.52-.08-.78-.14l0-12.22c.26,0,.52.1.79.13" style="fill: #004385"/>
                <path d="M61.2,100l0,12.22a7.72,7.72,0,0,1-.83-.2l0-12.23c.27.08.55.15.83.21" style="fill: #004081"/>
                <path d="M60.37,99.76l0,12.23a7.91,7.91,0,0,1-1-.33l0-12.22a9.82,9.82,0,0,0,1,.32" style="fill: #003e7c"/>
                <path d="M59.41,99.44l0,12.22a8.7,8.7,0,0,1-1.15-.55l0-12.22a9.4,9.4,0,0,0,1.15.55" style="fill: #003c78"/>
              </g>
            </g>
          </g>
        </g>
      </g>
    </g>
  </g>
</svg>
