<svg id="Layer_1" data-name="Layer 1" xmlns="http://www.w3.org/2000/svg" xmlns:xlink="http://www.w3.org/1999/xlink" viewBox="0 0 483.35 444.03">
  <defs>
    <radialGradient id="radial-gradient" cx="120.88" cy="311.91" r="35.55" gradientUnits="userSpaceOnUse">
      <stop offset="0" stop-color="#e6e6e6"/>
      <stop offset="1" stop-color="#bfbfbf"/>
    </radialGradient>
  </defs>
  <title>talking</title>
  <path id="red-string" d="M471.84,347c2.1-18.31,4.2-36.73,3.34-55.14s-4.82-37-14.08-52.93-24.27-29-42.16-33.5c-8.31-2.08-17.27-2.25-25.32.71s-15,9.3-17.69,17.45c-3.78,11.62,1.6,24.28,8.7,34.24s16.09,18.74,21,29.94a47.26,47.26,0,0,1-54.85,64.82" transform="translate(-8.12 -49.87)" style="fill: none;stroke: #000;stroke-miterlimit: 10;stroke-width: 2.8909118514790517px"/>
  <path id="read-body" d="M394.65,492.94s-.51-96.51,47.67-96.51,48.18,96.51,48.18,96.51Z" transform="translate(-8.12 -49.87)" style="fill: #ed1c24;stroke: #000;stroke-miterlimit: 10;stroke-width: 1.927274567652701px"/>
  <circle id="red-head" cx="434.46" cy="308.12" r="32.55" style="fill: #ed1c24;stroke: #000;stroke-miterlimit: 10;stroke-width: 1.927274567652701px"/>
  <path id="_1-msg-blue" data-name="1-msg-blue" d="M296.68,51.05l-47.4,38.39H199.07A13.57,13.57,0,0,1,185.54,75.9V64.58a13.57,13.57,0,0,1,13.53-13.53Z" transform="translate(-8.12 -49.87)" style="fill: #fcee21;stroke: #000;stroke-miterlimit: 10;stroke-width: 2.255608764736092px"/>
  <path id="_1-msg-red" data-name="1-msg-red" d="M373.79,51,360.21,64.58V75.9a13.57,13.57,0,0,1-13.53,13.54h-84.1L310,51.05h35.8l0,0Z" transform="translate(-8.12 -49.87)" style="fill: #0073e6;stroke: #000;stroke-miterlimit: 10;stroke-width: 2.255608764736092px"/>
  <path id="_3-msg-blue" data-name="3-msg-blue" d="M275.69,171l-23.43,19.22h-50.5a13.58,13.58,0,0,1-13.54-13.54V165.37a13.57,13.57,0,0,1,13.54-13.53H252Z" transform="translate(-8.12 -49.87)" style="fill: #ed1c24;stroke: #000;stroke-miterlimit: 10;stroke-width: 2.255608764736092px"/>
  <path id="_3-msg-red" data-name="3-msg-red" d="M372.62,151.79,359,165.37v11.32a13.57,13.57,0,0,1-13.53,13.54H261.7L285.13,171l-23.67-19.17H344.6l0-.05Z" transform="translate(-8.12 -49.87)" style="fill: lime;stroke: #000;stroke-miterlimit: 10;stroke-width: 2.255608764736092px"/>
  <path id="writing-msg-red" d="M350.27,353.38,338.67,365v9.67a11.6,11.6,0,0,1-11.56,11.57H308.67a11.6,11.6,0,0,1-11.56-11.57V365a11.6,11.6,0,0,1,11.56-11.57h17.67l0,0Z" transform="translate(-8.12 -49.87)" style="fill: #ed1c24;stroke: #000;stroke-miterlimit: 10;stroke-width: 1.927274567652701px"/>
  <path id="_2-msg-blue" data-name="2-msg-blue" d="M236.67,139.83H152.58a13.57,13.57,0,0,1-13.53-13.54V115l-13.58-13.58h28.06l0,0h83.13l-23.68,19.17Z" transform="translate(-8.12 -49.87)" style="fill: lime;stroke: #000;stroke-miterlimit: 10;stroke-width: 2.255608764736092px"/>
  <path id="_2-msg-red" data-name="2-msg-red" d="M311.82,115v11.32a13.58,13.58,0,0,1-13.54,13.54H248.06l-23.73-19.22L248,101.44h50.27A13.57,13.57,0,0,1,311.82,115Z" transform="translate(-8.12 -49.87)" style="fill: #ed1c24;stroke: #000;stroke-miterlimit: 10;stroke-width: 2.255608764736092px"/>
  <path id="_4-msg-blue" data-name="4-msg-blue" d="M236.5,202.85l-46.82,38.39H152.75a13.57,13.57,0,0,1-13.53-13.54V216.38L125.64,202.8H153.7l0,0Z" transform="translate(-8.12 -49.87)" style="fill: #0073e6;stroke: #000;stroke-miterlimit: 10;stroke-width: 2.255608764736092px"/>
  <path id="_4-msg-red" data-name="4-msg-red" d="M314.76,216.38V227.7a13.58,13.58,0,0,1-13.54,13.54H203.84l46.82-38.39h50.56A13.57,13.57,0,0,1,314.76,216.38Z" transform="translate(-8.12 -49.87)" style="fill: #fcee21;stroke: #000;stroke-miterlimit: 10;stroke-width: 2.255608764736092px"/>
  <path id="red-niddle" d="M394.65,275.47l-44.37,77.91,56.19-70.22C410.57,260.09,394.65,275.47,394.65,275.47Zm8.51,6.28c-1.51,2.21-4.15,3-5.89,1.82s-1.92-4-.41-6.16,4.16-3,5.91-1.82S404.69,279.55,403.16,281.75Z" transform="translate(-8.12 -49.87)" style="fill: #e6e6e6;stroke: #000;stroke-miterlimit: 10;stroke-width: 0.9636372838263505px"/>
  <path d="M403.16,281.75c-1.51,2.21-4.15,3-5.89,1.82s-1.92-4-.41-6.16,4.16-3,5.91-1.82S404.69,279.55,403.16,281.75Z" transform="translate(-8.12 -49.87)" style="fill: none;stroke: #000;stroke-miterlimit: 10;stroke-width: 1.927274567652701px"/>
  <path id="blue-niddle" d="M104.94,275.47S89,260.09,93.11,283.16l56.2,70.22Zm-2.62,8.1c-1.74,1.2-4.38.39-5.9-1.82s-1.34-5,.4-6.16,4.39-.38,5.9,1.82S104.06,282.37,102.32,283.57Z" transform="translate(-8.12 -49.87)" style="stroke: #000;stroke-miterlimit: 10;stroke-width: 0.9636372838263505px;fill: url(#radial-gradient)"/>
  <path d="M403.16,281.75c-1.51,2.21-4.15,3-5.89,1.82s-1.92-4-.41-6.16,4.16-3,5.91-1.82S404.69,279.55,403.16,281.75Z" transform="translate(-8.12 -49.87)" style="fill: none;stroke: #000;stroke-miterlimit: 10;stroke-width: 1.927274567652701px"/>
  <path id="blue-string" d="M27.74,347c-2.1-18.31-4.19-36.73-3.33-55.14s4.81-37,14.08-52.93,24.27-29,42.15-33.5c8.32-2.08,17.28-2.25,25.32.71s15,9.3,17.69,17.45c3.79,11.62-1.59,24.28-8.69,34.24S98.87,276.6,94,287.8a47.26,47.26,0,0,0,54.86,64.82" transform="translate(-8.12 -49.87)" style="fill: none;stroke: #000;stroke-miterlimit: 10;stroke-width: 2.8909118514790517px"/>
  <path id="blue-body" d="M104.93,492.94s.52-96.51-47.66-96.51S9.08,492.94,9.08,492.94Z" transform="translate(-8.12 -49.87)" style="fill: #0073e6;stroke: #000;stroke-miterlimit: 10;stroke-width: 1.927274567652701px"/>
  <circle id="blue-head" cx="48.89" cy="308.12" r="32.55" style="fill: #0073e6;stroke: #000;stroke-miterlimit: 10;stroke-width: 1.927274567652701px"/>
  <path id="writing-msg-blue" d="M149.31,353.38l11.6,11.6v9.67a11.61,11.61,0,0,0,11.57,11.57h18.43a11.61,11.61,0,0,0,11.57-11.57V365a11.61,11.61,0,0,0-11.57-11.57h0l-17.62,0Z" transform="translate(-8.12 -49.87)" style="fill: #0073e6;stroke: #000;stroke-miterlimit: 10;stroke-width: 1.927274567652701px"/>
  <path d="M102.32,283.57c-1.74,1.2-4.38.39-5.9-1.82s-1.34-5,.4-6.16,4.39-.38,5.9,1.82S104.06,282.37,102.32,283.57Z" transform="translate(-8.12 -49.87)" style="fill: none;stroke: #000;stroke-miterlimit: 10;stroke-width: 1.927274567652701px"/>
  <path d="M102.32,283.57c-1.74,1.2-4.38.39-5.9-1.82s-1.34-5,.4-6.16,4.39-.38,5.9,1.82S104.06,282.37,102.32,283.57Z" transform="translate(-8.12 -49.87)" style="fill: none;stroke: #000;stroke-miterlimit: 10;stroke-width: 1.927274567652701px"/>
</svg>
